<svg width="560" height="324" viewBox="0 0 560 324" fill="none" xmlns="http://www.w3.org/2000/svg">
<rect width="560" height="324" fill="#042640"/>
<path d="M194 229L118.001 261.805L24 211.626V96.472L118.001 36L194 84.5" stroke="#DFDADA" stroke-width="5"/>
<path d="M176 220L121.148 242.902L38.4526 201.831V107.498L118.522 56.1599L176 92" stroke="#DFDADA" stroke-width="2"/>
<rect width="119" height="97" transform="matrix(-1 0 0 1 183 113)" fill="#042640"/>
<path d="M73.0925 121.618C73.3602 120.781 74.1746 120.145 75.1936 119.963L75.2121 119.96C75.3832 119.929 75.5803 119.911 75.7811 119.911C76.6662 119.911 77.4583 120.242 77.9752 120.763L77.9789 120.766C84.2933 126.844 92.5676 131.421 102.009 133.861L102.378 133.943C108.673 135.616 115.996 136.81 123.563 137.286L123.891 137.302C132.187 137.553 139.974 139.06 147.081 141.597L146.672 141.466C158.944 146.886 167.132 157.305 167.132 169.281C167.132 169.469 167.128 169.657 167.125 169.845V169.818C167.091 170.736 167.013 171.643 166.887 172.546C166.314 176.177 165.087 179.472 163.294 182.504L163.399 182.31C169.122 188.317 174.064 195.177 177.85 202.528L178.121 203.125C178.262 203.389 178.344 203.695 178.344 204.019C178.344 205.274 177.095 206.293 175.555 206.293C174.41 206.293 173.428 205.732 172.997 204.929L172.989 204.914C169.404 197.92 165.21 191.897 160.253 186.353L160.472 186.611C156.244 191.931 150.398 196.129 143.488 198.8L143.239 198.887C137.955 200.855 131.774 202.004 125.267 202.004C125.166 202.004 125.069 202.004 124.973 202.004H124.988C117.963 201.976 111.28 200.815 105.189 198.727L105.531 198.83C85.963 191.6 72.0549 176.684 69.541 158.939L69.515 158.705C68.9684 155.28 68.656 151.321 68.656 147.302C68.656 138.153 70.2774 129.311 73.2933 120.96L73.0925 121.618ZM75.0411 158.029C77.2872 174.389 89.8826 187.987 107.298 194.495L107.647 194.61C112.608 196.408 118.398 197.457 124.486 197.457C130.432 197.457 136.092 196.459 141.224 194.656L140.948 194.741C147.679 192.155 153.109 188.078 156.723 183.028L156.813 182.892C144.478 171.336 128.439 165.58 105.49 163.758C104.077 163.637 102.984 162.673 102.984 161.497C102.984 160.242 104.233 159.224 105.773 159.224C105.862 159.224 105.951 159.227 106.041 159.233H106.029C126.999 159.866 145.749 167.108 159.367 178.46L159.382 178.472C160.29 176.602 160.985 174.422 161.338 172.158L161.357 172.021C161.469 171.245 161.535 170.469 161.562 169.693C161.565 169.545 161.569 169.366 161.569 169.19C161.569 159.011 154.619 150.157 144.377 145.607L144.206 145.537C138.07 143.391 130.949 142.045 123.474 141.824L123.37 141.821C115.014 141.297 107.268 140.027 99.8935 138.087L100.607 138.25C91.504 135.825 83.6983 131.939 77.2575 126.901L77.2798 126.916C75.3349 133.04 74.2192 140.066 74.2192 147.308C74.2192 151.088 74.5242 154.81 75.1117 158.457L75.056 158.026L75.0411 158.029Z" fill="white"/>
<path d="M156.5 139.832C156.5 150.42 146.717 159.5 134 159.5C121.283 159.5 111.5 150.42 111.5 139.832C111.5 137.448 112.78 133.907 115.102 129.638C117.367 125.475 120.416 120.983 123.508 116.814C126.593 112.655 129.683 108.866 132.004 106.114C132.761 105.217 133.436 104.432 134 103.781C134.564 104.432 135.239 105.217 135.996 106.114C138.317 108.866 141.407 112.655 144.492 116.814C147.584 120.983 150.633 125.475 152.898 129.638C155.22 133.907 156.5 137.448 156.5 139.832Z" fill="white" stroke="#042640" stroke-width="5"/>
<path d="M226.835 132.229H215.725L202.14 113.859H199.06V128.929L204.67 130.194V132.229H187.95V130.194L193.285 128.929V94.2792L187.95 93.0142V90.9792H204.505C210.335 90.9792 214.515 91.8592 217.045 93.6192C219.575 95.3792 220.84 98.2025 220.84 102.089C220.84 105.976 219.703 108.872 217.43 110.779C215.157 112.649 212.168 113.584 208.465 113.584L220.84 128.984L226.835 130.194V132.229ZM199.06 93.1792V111.714H205.22C208.337 111.714 210.647 110.981 212.15 109.514C213.69 108.047 214.46 105.701 214.46 102.474C214.46 99.2108 213.708 96.8458 212.205 95.3792C210.702 93.9125 208.373 93.1792 205.22 93.1792H199.06ZM232.317 132.229V130.194L237.212 128.984L253.877 90.5392H256.682L272.522 128.984L277.142 130.194V132.229H261.522V130.194L266.307 129.039L261.962 118.369H245.352L241.227 129.039L246.177 130.194V132.229H232.317ZM246.122 116.279H261.192L253.492 96.9742L246.122 116.279ZM314.16 90.9792H327.69V93.0142L322.3 94.3892V132.229H318.45L292.71 94.4992V128.984L298.1 130.194V132.229H284.845V130.194L289.96 128.984V94.4442L284.845 93.0142V90.9792H297.11L319.55 123.539V94.4442L314.16 93.0142V90.9792ZM337.589 90.9792H367.894V100.824H365.034L362.889 93.3442H348.809V109.789H359.424L360.909 105.004H362.944V116.389H360.909L359.424 112.209H348.809V129.864H363.879L366.024 122.439H368.939V132.229H337.589V130.194L343.034 128.929V94.3342L337.589 93.0142V90.9792ZM412.124 132.229V130.194L417.514 128.929V94.3892L402.554 132.229H399.199L384.239 94.3892V128.929L389.739 130.194V132.229H376.099V130.194L381.379 128.929V94.4442L376.704 93.0142V90.9792H388.529L402.444 125.409L415.974 90.9792H428.954V93.0142L423.234 94.3342V128.929L428.844 130.194V132.229H412.124ZM199.885 209.724C195.632 209.724 191.378 208.404 187.125 205.764V196.689H190.315L192.68 205.599C194.77 206.919 197.117 207.579 199.72 207.579C201.663 207.579 203.643 207.139 205.66 206.259C206.723 205.782 207.603 205.086 208.3 204.169C208.997 203.252 209.382 202.171 209.455 200.924C209.345 197.991 207.823 195.552 204.89 193.609C203.79 192.912 202.305 192.142 200.435 191.299C198.565 190.419 197.355 189.851 196.805 189.594C190.168 186.881 186.85 183.177 186.85 178.484C186.85 175.551 187.987 172.984 190.26 170.784C192.533 168.584 195.778 167.484 199.995 167.484C202.158 167.484 204.395 167.832 206.705 168.529C209.015 169.189 210.94 170.252 212.48 171.719V179.749H209.675L207.145 171.389C205.092 170.289 202.892 169.739 200.545 169.739C198.198 169.739 196.237 170.307 194.66 171.444C193.083 172.544 192.295 174.084 192.295 176.064C192.295 178.374 193.267 180.226 195.21 181.619C196.86 182.829 198.602 183.856 200.435 184.699C202.268 185.506 203.405 186.019 203.845 186.239C211.288 189.392 215.01 193.462 215.01 198.449C215.01 200.942 214.167 203.069 212.48 204.829C209.4 208.092 205.202 209.724 199.885 209.724ZM240.063 196.084C240.063 192.124 239.458 189.191 238.248 187.284C237.038 185.341 235.058 184.369 232.308 184.369C229.595 184.369 227.578 185.304 226.258 187.174C224.975 189.007 224.333 191.959 224.333 196.029C224.333 200.099 224.975 203.032 226.258 204.829C227.542 206.589 229.503 207.469 232.143 207.469C234.82 207.469 236.8 206.571 238.083 204.774C239.403 202.941 240.063 200.044 240.063 196.084ZM218.778 196.084C218.778 191.757 220.007 188.347 222.463 185.854C224.92 183.324 228.165 182.059 232.198 182.059C236.268 182.059 239.513 183.287 241.933 185.744C244.353 188.201 245.563 191.629 245.563 196.029C245.563 200.429 244.353 203.821 241.933 206.204C239.513 208.551 236.25 209.724 232.143 209.724C228.073 209.724 224.828 208.532 222.408 206.149C219.988 203.766 218.778 200.411 218.778 196.084ZM251.835 167.979H261.02V205.984L265.475 207.194V209.229H251.505V207.194L255.795 206.039V170.619L251.835 169.959V167.979ZM269.421 182.554H278.551V198.999C278.551 201.896 278.918 203.949 279.651 205.159C280.421 206.369 281.668 206.974 283.391 206.974C285.958 206.974 287.975 205.764 289.441 203.344C290.908 200.924 291.641 197.221 291.641 192.234V185.304L287.626 184.589V182.554H296.756V205.929L301.101 207.194V209.229H291.971V201.804C291.018 204.407 289.68 206.406 287.956 207.799C286.27 209.156 284.418 209.834 282.401 209.834C276.388 209.834 273.381 206.534 273.381 199.934V185.304L269.421 184.589V182.554ZM312.968 182.554H320.998V184.864H312.968V201.914C312.968 204.077 313.225 205.581 313.738 206.424C314.252 207.231 315.077 207.634 316.213 207.634C317.35 207.634 318.89 207.359 320.833 206.809V208.844C318.267 209.541 316.177 209.889 314.563 209.889C310.09 209.889 307.853 207.194 307.853 201.804V184.864H303.123V182.554H307.853V176.889L312.968 173.974V182.554ZM324.324 182.554H333.234V206.094L337.084 207.194V209.229H324.049V207.194L328.064 205.984V185.194L324.324 184.534V182.554ZM326.139 170.839C326.139 169.849 326.451 169.079 327.074 168.529C327.734 167.942 328.596 167.649 329.659 167.649C330.759 167.649 331.639 167.942 332.299 168.529C332.959 169.079 333.289 169.849 333.289 170.839C333.289 171.792 332.978 172.562 332.354 173.149C331.731 173.736 330.851 174.029 329.714 174.029C328.614 174.029 327.734 173.754 327.074 173.204C326.451 172.617 326.139 171.829 326.139 170.839ZM363.169 196.084C363.169 192.124 362.564 189.191 361.354 187.284C360.144 185.341 358.164 184.369 355.414 184.369C352.7 184.369 350.684 185.304 349.364 187.174C348.08 189.007 347.439 191.959 347.439 196.029C347.439 200.099 348.08 203.032 349.364 204.829C350.647 206.589 352.609 207.469 355.249 207.469C357.925 207.469 359.905 206.571 361.189 204.774C362.509 202.941 363.169 200.044 363.169 196.084ZM341.884 196.084C341.884 191.757 343.112 188.347 345.569 185.854C348.025 183.324 351.27 182.059 355.304 182.059C359.374 182.059 362.619 183.287 365.039 185.744C367.459 188.201 368.669 191.629 368.669 196.029C368.669 200.429 367.459 203.821 365.039 206.204C362.619 208.551 359.355 209.724 355.249 209.724C351.179 209.724 347.934 208.532 345.514 206.149C343.094 203.766 341.884 200.411 341.884 196.084ZM374.996 182.499H383.906V190.254C385.372 184.827 388.636 182.114 393.696 182.114C396.666 182.114 398.866 183.031 400.296 184.864C401.726 186.661 402.441 189.154 402.441 192.344V205.984L406.676 207.194V209.229H393.641V207.194L397.326 206.094V193.004C397.326 190.034 396.922 187.907 396.116 186.624C395.346 185.341 394.117 184.699 392.431 184.699C389.827 184.699 387.811 185.946 386.381 188.439C384.987 190.896 384.291 194.599 384.291 199.549V206.094L388.141 207.194V209.229H374.996V207.194L379.066 206.039V185.249L374.996 184.479V182.499ZM429.596 167.979H446.316V170.014L440.871 171.279V206.809H454.951L457.096 198.834H459.956V209.229H429.596V207.194L435.096 205.929V171.334L429.596 170.014V167.979ZM474.209 182.554H482.239V184.864H474.209V201.914C474.209 204.077 474.465 205.581 474.979 206.424C475.492 207.231 476.317 207.634 477.454 207.634C478.59 207.634 480.13 207.359 482.074 206.809V208.844C479.507 209.541 477.417 209.889 475.804 209.889C471.33 209.889 469.094 207.194 469.094 201.804V184.864H464.364V182.554H469.094V176.889L474.209 173.974V182.554ZM502.669 167.979H511.909V206.039L516.584 207.194V209.229H507.014V202.959C505.694 207.506 502.559 209.779 497.609 209.779C494.163 209.779 491.376 208.587 489.249 206.204C487.159 203.821 486.114 200.447 486.114 196.084C486.114 191.684 487.159 188.256 489.249 185.799C491.376 183.342 494.144 182.114 497.554 182.114C500.011 182.114 502.046 182.701 503.659 183.874C505.309 185.047 506.354 186.587 506.794 188.494V170.784L502.669 169.959V167.979ZM498.489 184.589C493.943 184.589 491.669 188.384 491.669 195.974C491.669 203.527 493.961 207.304 498.544 207.304C501.001 207.304 503.018 206.277 504.594 204.224C506.208 202.171 507.014 199.421 507.014 195.974C507.014 192.527 506.208 189.777 504.594 187.724C503.018 185.634 500.983 184.589 498.489 184.589Z" fill="#DFDADA"/>
<path d="M185.898 225V224.482L187.256 224.16V215.102H184.694L184.148 217.146H183.42V214.5H192.604V217.146H191.876L191.33 215.102H188.726V224.174L190.154 224.482V225H185.898ZM192.365 218.21H194.689V222.396C194.689 223.133 194.783 223.656 194.969 223.964C195.165 224.272 195.483 224.426 195.921 224.426C196.575 224.426 197.088 224.118 197.461 223.502C197.835 222.886 198.021 221.943 198.021 220.674V218.91L196.999 218.728V218.21H199.323V224.16L200.429 224.482V225H198.105V223.11C197.863 223.773 197.522 224.281 197.083 224.636C196.654 224.981 196.183 225.154 195.669 225.154C194.139 225.154 193.373 224.314 193.373 222.634V218.91L192.365 218.728V218.21ZM201.504 218.21H203.828V220.198C204.015 219.638 204.304 219.171 204.696 218.798C205.088 218.415 205.564 218.224 206.124 218.224C206.469 218.224 206.885 218.35 207.37 218.602V220.282H206.824L206.39 219.134C206.213 219.041 206.012 218.994 205.788 218.994C205.377 218.994 204.962 219.237 204.542 219.722C204.131 220.198 203.926 220.711 203.926 221.262V224.188L204.962 224.482V225H201.532V224.482L202.596 224.188V218.91L201.504 218.714V218.21ZM208.37 218.196H210.638V220.17C211.011 218.789 211.842 218.098 213.13 218.098C213.886 218.098 214.446 218.331 214.81 218.798C215.174 219.255 215.356 219.89 215.356 220.702V224.174L216.434 224.482V225H213.116V224.482L214.054 224.202V220.87C214.054 220.114 213.951 219.573 213.746 219.246C213.55 218.919 213.237 218.756 212.808 218.756C212.145 218.756 211.632 219.073 211.268 219.708C210.913 220.333 210.736 221.276 210.736 222.536V224.202L211.716 224.482V225H208.37V224.482L209.406 224.188V218.896L208.37 218.7V218.196ZM217.77 218.21H220.038V224.202L221.018 224.482V225H217.7V224.482L218.722 224.174V218.882L217.77 218.714V218.21ZM218.232 215.228C218.232 214.976 218.312 214.78 218.47 214.64C218.638 214.491 218.858 214.416 219.128 214.416C219.408 214.416 219.632 214.491 219.8 214.64C219.968 214.78 220.052 214.976 220.052 215.228C220.052 215.471 219.973 215.667 219.814 215.816C219.656 215.965 219.432 216.04 219.142 216.04C218.862 216.04 218.638 215.97 218.47 215.83C218.312 215.681 218.232 215.48 218.232 215.228ZM222.52 218.196H224.788V220.17C225.161 218.789 225.992 218.098 227.28 218.098C228.036 218.098 228.596 218.331 228.96 218.798C229.324 219.255 229.506 219.89 229.506 220.702V224.174L230.584 224.482V225H227.266V224.482L228.204 224.202V220.87C228.204 220.114 228.101 219.573 227.896 219.246C227.7 218.919 227.387 218.756 226.958 218.756C226.295 218.756 225.782 219.073 225.418 219.708C225.063 220.333 224.886 221.276 224.886 222.536V224.202L225.866 224.482V225H222.52V224.482L223.556 224.188V218.896L222.52 218.7V218.196ZM233.153 225.798C232.705 226.246 232.481 226.736 232.481 227.268C232.481 227.8 232.691 228.239 233.111 228.584C233.54 228.939 234.142 229.116 234.917 229.116C235.701 229.116 236.345 228.943 236.849 228.598C237.362 228.262 237.619 227.819 237.619 227.268C237.619 226.615 237.171 226.251 236.275 226.176L234.287 226.022C233.792 225.985 233.414 225.91 233.153 225.798ZM234.889 218.616C233.862 218.616 233.349 219.311 233.349 220.702C233.349 221.421 233.475 221.948 233.727 222.284C233.979 222.62 234.371 222.788 234.903 222.788C235.957 222.788 236.485 222.107 236.485 220.744C236.485 219.988 236.359 219.447 236.107 219.12C235.855 218.784 235.449 218.616 234.889 218.616ZM238.627 218.238V218.728L237.367 219.218C237.647 219.629 237.787 220.128 237.787 220.716C237.787 221.509 237.511 222.139 236.961 222.606C236.41 223.073 235.71 223.306 234.861 223.306C234.59 223.306 234.277 223.269 233.923 223.194C233.465 223.446 233.237 223.717 233.237 224.006C233.237 224.286 233.316 224.482 233.475 224.594C233.643 224.706 234.021 224.79 234.609 224.846L235.995 224.958C236.853 224.977 237.469 225.145 237.843 225.462C238.216 225.779 238.403 226.255 238.403 226.89C238.403 227.749 238.067 228.416 237.395 228.892C236.723 229.368 235.869 229.606 234.833 229.606C233.797 229.606 232.994 229.415 232.425 229.032C231.855 228.649 231.571 228.103 231.571 227.394C231.571 226.694 231.995 226.115 232.845 225.658C232.471 225.341 232.285 224.986 232.285 224.594C232.285 224.202 232.373 223.903 232.551 223.698C232.728 223.493 233.05 223.283 233.517 223.068C232.546 222.573 232.061 221.785 232.061 220.702C232.061 219.899 232.317 219.26 232.831 218.784C233.344 218.299 234.035 218.056 234.903 218.056C235.323 218.056 235.771 218.117 236.247 218.238H238.627ZM251.372 214.5H254.816V215.018L253.444 215.368V225H252.464L245.912 215.396V224.174L247.284 224.482V225H243.91V224.482L245.212 224.174V215.382L243.91 215.018V214.5H247.032L252.744 222.788V215.382L251.372 215.018V214.5ZM263.582 225H261.118V223.586C260.679 224.613 259.909 225.126 258.808 225.126C258.071 225.126 257.511 224.967 257.128 224.65C256.745 224.323 256.554 223.871 256.554 223.292C256.554 222.471 256.913 221.883 257.632 221.528C258.36 221.164 259.513 220.968 261.09 220.94V220.338C261.09 219.675 260.955 219.227 260.684 218.994C260.413 218.751 260.012 218.63 259.48 218.63C258.948 218.63 258.486 218.751 258.094 218.994L257.632 220.38H257.114V218.798C257.347 218.602 257.669 218.439 258.08 218.308C258.491 218.168 258.939 218.098 259.424 218.098C260.413 218.098 261.155 218.289 261.65 218.672C262.154 219.045 262.406 219.713 262.406 220.674V224.16L263.582 224.482V225ZM259.172 224.538C259.769 224.538 260.236 224.309 260.572 223.852C260.917 223.385 261.09 222.578 261.09 221.43C259.485 221.43 258.505 221.677 258.15 222.172C257.982 222.405 257.898 222.751 257.898 223.208C257.898 223.665 257.996 224.001 258.192 224.216C258.397 224.431 258.724 224.538 259.172 224.538ZM266.929 218.21H268.973V218.798H266.929V223.138C266.929 223.689 266.994 224.071 267.125 224.286C267.255 224.491 267.465 224.594 267.755 224.594C268.044 224.594 268.436 224.524 268.931 224.384V224.902C268.277 225.079 267.745 225.168 267.335 225.168C266.196 225.168 265.627 224.482 265.627 223.11V218.798H264.423V218.21H265.627V216.768L266.929 216.026V218.21ZM269.707 218.21H272.031V222.396C272.031 223.133 272.124 223.656 272.311 223.964C272.507 224.272 272.824 224.426 273.263 224.426C273.916 224.426 274.43 224.118 274.803 223.502C275.176 222.886 275.363 221.943 275.363 220.674V218.91L274.341 218.728V218.21H276.665V224.16L277.771 224.482V225H275.447V223.11C275.204 223.773 274.864 224.281 274.425 224.636C273.996 224.981 273.524 225.154 273.011 225.154C271.48 225.154 270.715 224.314 270.715 222.634V218.91L269.707 218.728V218.21ZM278.846 218.21H281.17V220.198C281.357 219.638 281.646 219.171 282.038 218.798C282.43 218.415 282.906 218.224 283.466 218.224C283.811 218.224 284.227 218.35 284.712 218.602V220.282H284.166L283.732 219.134C283.555 219.041 283.354 218.994 283.13 218.994C282.719 218.994 282.304 219.237 281.884 219.722C281.473 220.198 281.268 220.711 281.268 221.262V224.188L282.304 224.482V225H278.874V224.482L279.938 224.188V218.91L278.846 218.714V218.21ZM291.604 222.634V224.23C291.072 224.837 290.213 225.14 289.028 225.14C287.852 225.14 286.979 224.832 286.41 224.216C285.84 223.591 285.556 222.727 285.556 221.626C285.556 220.525 285.854 219.661 286.452 219.036C287.058 218.401 287.87 218.084 288.888 218.084C289.494 218.084 289.998 218.196 290.4 218.42C290.81 218.644 291.104 218.943 291.282 219.316C291.562 219.932 291.702 220.581 291.702 221.262H286.956C286.956 222.317 287.077 223.119 287.32 223.67C287.6 224.295 288.15 224.608 288.972 224.608C289.261 224.608 289.536 224.571 289.798 224.496C290.068 224.412 290.264 224.333 290.386 224.258C290.507 224.183 290.568 224.137 290.568 224.118L291.086 222.634H291.604ZM288.86 218.63C288.066 218.63 287.525 218.994 287.236 219.722C287.096 220.049 287.012 220.408 286.984 220.8H290.484C290.484 219.353 289.942 218.63 288.86 218.63ZM293.213 217.398V213.87H294.991L293.871 217.398H293.213ZM302.045 222.998C302.045 223.623 301.811 224.127 301.345 224.51C300.878 224.883 300.159 225.07 299.189 225.07C298.227 225.07 297.476 224.813 296.935 224.3V222.676H297.481L297.887 224.048C298.213 224.375 298.736 224.538 299.455 224.538C299.959 224.538 300.341 224.426 300.603 224.202C300.864 223.978 300.995 223.707 300.995 223.39C300.995 223.073 300.859 222.825 300.589 222.648C300.318 222.471 299.781 222.256 298.979 222.004C298.185 221.743 297.63 221.472 297.313 221.192C296.995 220.912 296.837 220.497 296.837 219.946C296.837 219.386 297.065 218.924 297.523 218.56C297.98 218.196 298.652 218.014 299.539 218.014C300.425 218.014 301.139 218.224 301.681 218.644V220.254H301.135L300.701 218.91C300.393 218.667 299.982 218.546 299.469 218.546C298.451 218.546 297.943 218.91 297.943 219.638C297.943 219.909 298.087 220.147 298.377 220.352C298.675 220.548 299.217 220.767 300.001 221.01C300.785 221.253 301.321 221.528 301.611 221.836C301.9 222.135 302.045 222.522 302.045 222.998ZM313.468 220.464H317.794V220.982L316.408 221.304V224.496C315.932 224.711 315.321 224.879 314.574 225C313.828 225.121 313.142 225.182 312.516 225.182C310.883 225.182 309.623 224.701 308.736 223.74C307.85 222.779 307.406 221.463 307.406 219.792C307.406 218.121 307.84 216.787 308.708 215.788C309.576 214.78 310.804 214.276 312.39 214.276C313.034 214.276 313.702 214.365 314.392 214.542C315.083 214.71 315.652 215.004 316.1 215.424V217.79H315.372L314.686 215.466C314.276 215.027 313.501 214.808 312.362 214.808C311.224 214.808 310.384 215.233 309.842 216.082C309.301 216.931 309.03 218.131 309.03 219.68C309.03 222.975 310.183 224.622 312.488 224.622C313.216 224.622 314.033 224.51 314.938 224.286V221.304L313.468 220.982V220.464ZM318.491 218.21H320.759V224.202L321.739 224.482V225H318.421V224.482L319.443 224.174V218.882L318.491 218.714V218.21ZM318.953 215.228C318.953 214.976 319.032 214.78 319.191 214.64C319.359 214.491 319.578 214.416 319.849 214.416C320.129 214.416 320.353 214.491 320.521 214.64C320.689 214.78 320.773 214.976 320.773 215.228C320.773 215.471 320.694 215.667 320.535 215.816C320.376 215.965 320.152 216.04 319.863 216.04C319.583 216.04 319.359 215.97 319.191 215.83C319.032 215.681 318.953 215.48 318.953 215.228ZM327.553 216.6H326.965L326.643 215.396C326.456 215.293 326.283 215.242 326.125 215.242C325.807 215.242 325.565 215.401 325.397 215.718C325.229 216.035 325.145 216.446 325.145 216.95C325.145 217.454 325.243 217.869 325.439 218.196H327.119V218.77H325.467V224.174L326.531 224.482V225H323.171V224.482L324.137 224.174V218.77H322.863V218.196H324.137C324.137 216.908 324.286 215.984 324.585 215.424C324.883 214.855 325.397 214.57 326.125 214.57C326.498 214.57 326.974 214.649 327.553 214.808V216.6ZM330.995 218.21H333.039V218.798H330.995V223.138C330.995 223.689 331.06 224.071 331.191 224.286C331.322 224.491 331.532 224.594 331.821 224.594C332.11 224.594 332.502 224.524 332.997 224.384V224.902C332.344 225.079 331.812 225.168 331.401 225.168C330.262 225.168 329.693 224.482 329.693 223.11V218.798H328.489V218.21H329.693V216.768L330.995 216.026V218.21ZM339.178 222.998C339.178 223.623 338.944 224.127 338.478 224.51C338.011 224.883 337.292 225.07 336.322 225.07C335.36 225.07 334.609 224.813 334.068 224.3V222.676H334.614L335.02 224.048C335.346 224.375 335.869 224.538 336.588 224.538C337.092 224.538 337.474 224.426 337.736 224.202C337.997 223.978 338.128 223.707 338.128 223.39C338.128 223.073 337.992 222.825 337.722 222.648C337.451 222.471 336.914 222.256 336.112 222.004C335.318 221.743 334.763 221.472 334.446 221.192C334.128 220.912 333.97 220.497 333.97 219.946C333.97 219.386 334.198 218.924 334.656 218.56C335.113 218.196 335.785 218.014 336.672 218.014C337.558 218.014 338.272 218.224 338.814 218.644V220.254H338.268L337.834 218.91C337.526 218.667 337.115 218.546 336.602 218.546C335.584 218.546 335.076 218.91 335.076 219.638C335.076 219.909 335.22 220.147 335.51 220.352C335.808 220.548 336.35 220.767 337.134 221.01C337.918 221.253 338.454 221.528 338.744 221.836C339.033 222.135 339.178 222.522 339.178 222.998ZM344.399 218.21H346.667V224.202L347.647 224.482V225H344.329V224.482L345.351 224.174V218.882L344.399 218.714V218.21ZM344.861 215.228C344.861 214.976 344.941 214.78 345.099 214.64C345.267 214.491 345.487 214.416 345.757 214.416C346.037 214.416 346.261 214.491 346.429 214.64C346.597 214.78 346.681 214.976 346.681 215.228C346.681 215.471 346.602 215.667 346.443 215.816C346.285 215.965 346.061 216.04 345.771 216.04C345.491 216.04 345.267 215.97 345.099 215.83C344.941 215.681 344.861 215.48 344.861 215.228ZM349.149 218.196H351.417V220.17C351.79 218.789 352.621 218.098 353.909 218.098C354.665 218.098 355.225 218.331 355.589 218.798C355.953 219.255 356.135 219.89 356.135 220.702V224.174L357.213 224.482V225H353.895V224.482L354.833 224.202V220.87C354.833 220.114 354.73 219.573 354.525 219.246C354.329 218.919 354.016 218.756 353.587 218.756C352.924 218.756 352.411 219.073 352.047 219.708C351.692 220.333 351.515 221.276 351.515 222.536V224.202L352.495 224.482V225H349.149V224.482L350.185 224.188V218.896L349.149 218.7V218.196ZM360.636 218.21H362.68V218.798H360.636V223.138C360.636 223.689 360.701 224.071 360.832 224.286C360.962 224.491 361.172 224.594 361.462 224.594C361.751 224.594 362.143 224.524 362.638 224.384V224.902C361.984 225.079 361.452 225.168 361.042 225.168C359.903 225.168 359.334 224.482 359.334 223.11V218.798H358.13V218.21H359.334V216.768L360.636 216.026V218.21ZM368.656 221.654C368.656 220.646 368.502 219.899 368.194 219.414C367.886 218.919 367.382 218.672 366.682 218.672C365.991 218.672 365.478 218.91 365.142 219.386C364.815 219.853 364.652 220.604 364.652 221.64C364.652 222.676 364.815 223.423 365.142 223.88C365.469 224.328 365.968 224.552 366.64 224.552C367.321 224.552 367.825 224.323 368.152 223.866C368.488 223.399 368.656 222.662 368.656 221.654ZM363.238 221.654C363.238 220.553 363.551 219.685 364.176 219.05C364.801 218.406 365.627 218.084 366.654 218.084C367.69 218.084 368.516 218.397 369.132 219.022C369.748 219.647 370.056 220.52 370.056 221.64C370.056 222.76 369.748 223.623 369.132 224.23C368.516 224.827 367.685 225.126 366.64 225.126C365.604 225.126 364.778 224.823 364.162 224.216C363.546 223.609 363.238 222.755 363.238 221.654ZM378.964 225.126C377.881 225.126 376.799 224.79 375.716 224.118V221.808H376.528L377.13 224.076C377.662 224.412 378.259 224.58 378.922 224.58C379.417 224.58 379.921 224.468 380.434 224.244C380.705 224.123 380.929 223.945 381.106 223.712C381.283 223.479 381.381 223.203 381.4 222.886C381.372 222.139 380.985 221.519 380.238 221.024C379.958 220.847 379.58 220.651 379.104 220.436C378.628 220.212 378.32 220.067 378.18 220.002C376.491 219.311 375.646 218.369 375.646 217.174C375.646 216.427 375.935 215.774 376.514 215.214C377.093 214.654 377.919 214.374 378.992 214.374C379.543 214.374 380.112 214.463 380.7 214.64C381.288 214.808 381.778 215.079 382.17 215.452V217.496H381.456L380.812 215.368C380.289 215.088 379.729 214.948 379.132 214.948C378.535 214.948 378.035 215.093 377.634 215.382C377.233 215.662 377.032 216.054 377.032 216.558C377.032 217.146 377.279 217.617 377.774 217.972C378.194 218.28 378.637 218.541 379.104 218.756C379.571 218.961 379.86 219.092 379.972 219.148C381.867 219.951 382.814 220.987 382.814 222.256C382.814 222.891 382.599 223.432 382.17 223.88C381.386 224.711 380.317 225.126 378.964 225.126ZM383.703 218.21H386.027V222.396C386.027 223.133 386.121 223.656 386.307 223.964C386.503 224.272 386.821 224.426 387.259 224.426C387.913 224.426 388.426 224.118 388.799 223.502C389.173 222.886 389.359 221.943 389.359 220.674V218.91L388.337 218.728V218.21H390.661V224.16L391.767 224.482V225H389.443V223.11C389.201 223.773 388.86 224.281 388.421 224.636C387.992 224.981 387.521 225.154 387.007 225.154C385.477 225.154 384.711 224.314 384.711 222.634V218.91L383.703 218.728V218.21ZM397.994 222.998C397.994 223.623 397.761 224.127 397.294 224.51C396.827 224.883 396.109 225.07 395.138 225.07C394.177 225.07 393.425 224.813 392.884 224.3V222.676H393.43L393.836 224.048C394.163 224.375 394.685 224.538 395.404 224.538C395.908 224.538 396.291 224.426 396.552 224.202C396.813 223.978 396.944 223.707 396.944 223.39C396.944 223.073 396.809 222.825 396.538 222.648C396.267 222.471 395.731 222.256 394.928 222.004C394.135 221.743 393.579 221.472 393.262 221.192C392.945 220.912 392.786 220.497 392.786 219.946C392.786 219.386 393.015 218.924 393.472 218.56C393.929 218.196 394.601 218.014 395.488 218.014C396.375 218.014 397.089 218.224 397.63 218.644V220.254H397.084L396.65 218.91C396.342 218.667 395.931 218.546 395.418 218.546C394.401 218.546 393.892 218.91 393.892 219.638C393.892 219.909 394.037 220.147 394.326 220.352C394.625 220.548 395.166 220.767 395.95 221.01C396.734 221.253 397.271 221.528 397.56 221.836C397.849 222.135 397.994 222.522 397.994 222.998ZM401.364 218.21H403.408V218.798H401.364V223.138C401.364 223.689 401.429 224.071 401.56 224.286C401.691 224.491 401.901 224.594 402.19 224.594C402.479 224.594 402.871 224.524 403.366 224.384V224.902C402.713 225.079 402.181 225.168 401.77 225.168C400.631 225.168 400.062 224.482 400.062 223.11V218.798H398.858V218.21H400.062V216.768L401.364 216.026V218.21ZM411.252 225H408.788V223.586C408.349 224.613 407.579 225.126 406.478 225.126C405.741 225.126 405.181 224.967 404.798 224.65C404.415 224.323 404.224 223.871 404.224 223.292C404.224 222.471 404.583 221.883 405.302 221.528C406.03 221.164 407.183 220.968 408.76 220.94V220.338C408.76 219.675 408.625 219.227 408.354 218.994C408.083 218.751 407.682 218.63 407.15 218.63C406.618 218.63 406.156 218.751 405.764 218.994L405.302 220.38H404.784V218.798C405.017 218.602 405.339 218.439 405.75 218.308C406.161 218.168 406.609 218.098 407.094 218.098C408.083 218.098 408.825 218.289 409.32 218.672C409.824 219.045 410.076 219.713 410.076 220.674V224.16L411.252 224.482V225ZM406.842 224.538C407.439 224.538 407.906 224.309 408.242 223.852C408.587 223.385 408.76 222.578 408.76 221.43C407.155 221.43 406.175 221.677 405.82 222.172C405.652 222.405 405.568 222.751 405.568 223.208C405.568 223.665 405.666 224.001 405.862 224.216C406.067 224.431 406.394 224.538 406.842 224.538ZM412.513 218.21H414.781V224.202L415.761 224.482V225H412.443V224.482L413.465 224.174V218.882L412.513 218.714V218.21ZM412.975 215.228C412.975 214.976 413.054 214.78 413.213 214.64C413.381 214.491 413.6 214.416 413.87 214.416C414.151 214.416 414.375 214.491 414.543 214.64C414.711 214.78 414.795 214.976 414.795 215.228C414.795 215.471 414.715 215.667 414.557 215.816C414.398 215.965 414.174 216.04 413.885 216.04C413.605 216.04 413.381 215.97 413.213 215.83C413.054 215.681 412.975 215.48 412.975 215.228ZM417.262 218.196H419.53V220.17C419.904 218.789 420.734 218.098 422.022 218.098C422.778 218.098 423.338 218.331 423.702 218.798C424.066 219.255 424.248 219.89 424.248 220.702V224.174L425.326 224.482V225H422.008V224.482L422.946 224.202V220.87C422.946 220.114 422.844 219.573 422.638 219.246C422.442 218.919 422.13 218.756 421.7 218.756C421.038 218.756 420.524 219.073 420.16 219.708C419.806 220.333 419.628 221.276 419.628 222.536V224.202L420.608 224.482V225H417.262V224.482L418.298 224.188V218.896L417.262 218.7V218.196ZM433.551 225H431.087V223.586C430.648 224.613 429.878 225.126 428.777 225.126C428.04 225.126 427.48 224.967 427.097 224.65C426.714 224.323 426.523 223.871 426.523 223.292C426.523 222.471 426.882 221.883 427.601 221.528C428.329 221.164 429.482 220.968 431.059 220.94V220.338C431.059 219.675 430.924 219.227 430.653 218.994C430.382 218.751 429.981 218.63 429.449 218.63C428.917 218.63 428.455 218.751 428.063 218.994L427.601 220.38H427.083V218.798C427.316 218.602 427.638 218.439 428.049 218.308C428.46 218.168 428.908 218.098 429.393 218.098C430.382 218.098 431.124 218.289 431.619 218.672C432.123 219.045 432.375 219.713 432.375 220.674V224.16L433.551 224.482V225ZM429.141 224.538C429.738 224.538 430.205 224.309 430.541 223.852C430.886 223.385 431.059 222.578 431.059 221.43C429.454 221.43 428.474 221.677 428.119 222.172C427.951 222.405 427.867 222.751 427.867 223.208C427.867 223.665 427.965 224.001 428.161 224.216C428.366 224.431 428.693 224.538 429.141 224.538ZM434.671 214.5H437.163V219.792C437.359 219.223 437.663 218.793 438.073 218.504C438.484 218.215 438.955 218.07 439.487 218.07C440.355 218.07 441.06 218.383 441.601 219.008C442.143 219.624 442.413 220.492 442.413 221.612C442.413 222.732 442.143 223.6 441.601 224.216C441.069 224.832 440.36 225.14 439.473 225.14C438.904 225.14 438.409 224.986 437.989 224.678C437.569 224.37 437.266 223.927 437.079 223.348V225H434.671V224.482L435.833 224.16V215.214L434.671 215.004V214.5ZM439.291 218.7C438.685 218.7 438.176 218.966 437.765 219.498C437.364 220.021 437.163 220.721 437.163 221.598C437.163 222.466 437.355 223.171 437.737 223.712C438.129 224.244 438.647 224.51 439.291 224.51C440.43 224.51 440.999 223.544 440.999 221.612C440.999 219.671 440.43 218.7 439.291 218.7ZM444.182 214.5H446.52V224.174L447.654 224.482V225H444.098V224.482L445.19 224.188V215.172L444.182 215.004V214.5ZM454.832 222.634V224.23C454.3 224.837 453.442 225.14 452.256 225.14C451.08 225.14 450.208 224.832 449.638 224.216C449.069 223.591 448.784 222.727 448.784 221.626C448.784 220.525 449.083 219.661 449.68 219.036C450.287 218.401 451.099 218.084 452.116 218.084C452.723 218.084 453.227 218.196 453.628 218.42C454.039 218.644 454.333 218.943 454.51 219.316C454.79 219.932 454.93 220.581 454.93 221.262H450.184C450.184 222.317 450.306 223.119 450.548 223.67C450.828 224.295 451.379 224.608 452.2 224.608C452.49 224.608 452.765 224.571 453.026 224.496C453.297 224.412 453.493 224.333 453.614 224.258C453.736 224.183 453.796 224.137 453.796 224.118L454.314 222.634H454.832ZM452.088 218.63C451.295 218.63 450.754 218.994 450.464 219.722C450.324 220.049 450.24 220.408 450.212 220.8H453.712C453.712 219.353 453.171 218.63 452.088 218.63ZM464.017 225.126C462.934 225.126 461.851 224.79 460.769 224.118V221.808H461.581L462.183 224.076C462.715 224.412 463.312 224.58 463.975 224.58C464.469 224.58 464.973 224.468 465.487 224.244C465.757 224.123 465.981 223.945 466.159 223.712C466.336 223.479 466.434 223.203 466.453 222.886C466.425 222.139 466.037 221.519 465.291 221.024C465.011 220.847 464.633 220.651 464.157 220.436C463.681 220.212 463.373 220.067 463.233 220.002C461.543 219.311 460.699 218.369 460.699 217.174C460.699 216.427 460.988 215.774 461.567 215.214C462.145 214.654 462.971 214.374 464.045 214.374C464.595 214.374 465.165 214.463 465.753 214.64C466.341 214.808 466.831 215.079 467.223 215.452V217.496H466.509L465.865 215.368C465.342 215.088 464.782 214.948 464.185 214.948C463.587 214.948 463.088 215.093 462.687 215.382C462.285 215.662 462.085 216.054 462.085 216.558C462.085 217.146 462.332 217.617 462.827 217.972C463.247 218.28 463.69 218.541 464.157 218.756C464.623 218.961 464.913 219.092 465.025 219.148C466.919 219.951 467.867 220.987 467.867 222.256C467.867 222.891 467.652 223.432 467.223 223.88C466.439 224.711 465.37 225.126 464.017 225.126ZM474.244 221.654C474.244 220.646 474.09 219.899 473.782 219.414C473.474 218.919 472.97 218.672 472.27 218.672C471.579 218.672 471.066 218.91 470.73 219.386C470.403 219.853 470.24 220.604 470.24 221.64C470.24 222.676 470.403 223.423 470.73 223.88C471.057 224.328 471.556 224.552 472.228 224.552C472.909 224.552 473.413 224.323 473.74 223.866C474.076 223.399 474.244 222.662 474.244 221.654ZM468.826 221.654C468.826 220.553 469.139 219.685 469.764 219.05C470.389 218.406 471.215 218.084 472.242 218.084C473.278 218.084 474.104 218.397 474.72 219.022C475.336 219.647 475.644 220.52 475.644 221.64C475.644 222.76 475.336 223.623 474.72 224.23C474.104 224.827 473.273 225.126 472.228 225.126C471.192 225.126 470.366 224.823 469.75 224.216C469.134 223.609 468.826 222.755 468.826 221.654ZM477.24 214.5H479.578V224.174L480.712 224.482V225H477.156V224.482L478.248 224.188V215.172L477.24 215.004V214.5ZM481.717 218.21H484.041V222.396C484.041 223.133 484.134 223.656 484.321 223.964C484.517 224.272 484.834 224.426 485.273 224.426C485.926 224.426 486.44 224.118 486.813 223.502C487.186 222.886 487.373 221.943 487.373 220.674V218.91L486.351 218.728V218.21H488.675V224.16L489.781 224.482V225H487.457V223.11C487.214 223.773 486.874 224.281 486.435 224.636C486.006 224.981 485.534 225.154 485.021 225.154C483.49 225.154 482.725 224.314 482.725 222.634V218.91L481.717 218.728V218.21ZM492.802 218.21H494.846V218.798H492.802V223.138C492.802 223.689 492.867 224.071 492.998 224.286C493.128 224.491 493.338 224.594 493.628 224.594C493.917 224.594 494.309 224.524 494.804 224.384V224.902C494.15 225.079 493.618 225.168 493.208 225.168C492.069 225.168 491.5 224.482 491.5 223.11V218.798H490.296V218.21H491.5V216.768L492.802 216.026V218.21ZM495.692 218.21H497.96V224.202L498.94 224.482V225H495.622V224.482L496.644 224.174V218.882L495.692 218.714V218.21ZM496.154 215.228C496.154 214.976 496.234 214.78 496.392 214.64C496.56 214.491 496.78 214.416 497.05 214.416C497.33 214.416 497.554 214.491 497.722 214.64C497.89 214.78 497.974 214.976 497.974 215.228C497.974 215.471 497.895 215.667 497.736 215.816C497.578 215.965 497.354 216.04 497.064 216.04C496.784 216.04 496.56 215.97 496.392 215.83C496.234 215.681 496.154 215.48 496.154 215.228ZM505.58 221.654C505.58 220.646 505.426 219.899 505.118 219.414C504.81 218.919 504.306 218.672 503.606 218.672C502.915 218.672 502.402 218.91 502.066 219.386C501.739 219.853 501.576 220.604 501.576 221.64C501.576 222.676 501.739 223.423 502.066 223.88C502.393 224.328 502.892 224.552 503.564 224.552C504.245 224.552 504.749 224.323 505.076 223.866C505.412 223.399 505.58 222.662 505.58 221.654ZM500.162 221.654C500.162 220.553 500.475 219.685 501.1 219.05C501.725 218.406 502.551 218.084 503.578 218.084C504.614 218.084 505.44 218.397 506.056 219.022C506.672 219.647 506.98 220.52 506.98 221.64C506.98 222.76 506.672 223.623 506.056 224.23C505.44 224.827 504.609 225.126 503.564 225.126C502.528 225.126 501.702 224.823 501.086 224.216C500.47 223.609 500.162 222.755 500.162 221.654ZM508.59 218.196H510.858V220.17C511.232 218.789 512.062 218.098 513.35 218.098C514.106 218.098 514.666 218.331 515.03 218.798C515.394 219.255 515.576 219.89 515.576 220.702V224.174L516.654 224.482V225H513.336V224.482L514.274 224.202V220.87C514.274 220.114 514.172 219.573 513.966 219.246C513.77 218.919 513.458 218.756 513.028 218.756C512.366 218.756 511.852 219.073 511.488 219.708C511.134 220.333 510.956 221.276 510.956 222.536V224.202L511.936 224.482V225H508.59V224.482L509.626 224.188V218.896L508.59 218.7V218.196ZM523.283 222.998C523.283 223.623 523.05 224.127 522.583 224.51C522.116 224.883 521.398 225.07 520.427 225.07C519.466 225.07 518.714 224.813 518.173 224.3V222.676H518.719L519.125 224.048C519.452 224.375 519.974 224.538 520.693 224.538C521.197 224.538 521.58 224.426 521.841 224.202C522.102 223.978 522.233 223.707 522.233 223.39C522.233 223.073 522.098 222.825 521.827 222.648C521.556 222.471 521.02 222.256 520.217 222.004C519.424 221.743 518.868 221.472 518.551 221.192C518.234 220.912 518.075 220.497 518.075 219.946C518.075 219.386 518.304 218.924 518.761 218.56C519.218 218.196 519.89 218.014 520.777 218.014C521.664 218.014 522.378 218.224 522.919 218.644V220.254H522.373L521.939 218.91C521.631 218.667 521.22 218.546 520.707 218.546C519.69 218.546 519.181 218.91 519.181 219.638C519.181 219.909 519.326 220.147 519.615 220.352C519.914 220.548 520.455 220.767 521.239 221.01C522.023 221.253 522.56 221.528 522.849 221.836C523.138 222.135 523.283 222.522 523.283 222.998Z" fill="#DFDADA"/>
</svg>
