<svg width="560" height="324" viewBox="0 0 560 324" fill="none" xmlns="http://www.w3.org/2000/svg">
<rect width="560" height="324" fill="white"/>
<path d="M194 242L118.001 274.805L24 224.626V109.472L118.001 49L194 97.5" stroke="#042640" stroke-width="5"/>
<path d="M176 233L121.148 255.902L38.4526 214.831V120.498L118.522 69.1599L176 105" stroke="#042640" stroke-width="2"/>
<path d="M226.835 145.229H215.725L202.14 126.859H199.06V141.929L204.67 143.194V145.229H187.95V143.194L193.285 141.929V107.279L187.95 106.014V103.979H204.505C210.335 103.979 214.515 104.859 217.045 106.619C219.575 108.379 220.84 111.202 220.84 115.089C220.84 118.976 219.703 121.872 217.43 123.779C215.157 125.649 212.168 126.584 208.465 126.584L220.84 141.984L226.835 143.194V145.229ZM199.06 106.179V124.714H205.22C208.337 124.714 210.647 123.981 212.15 122.514C213.69 121.047 214.46 118.701 214.46 115.474C214.46 112.211 213.708 109.846 212.205 108.379C210.702 106.912 208.373 106.179 205.22 106.179H199.06ZM232.317 145.229V143.194L237.212 141.984L253.877 103.539H256.682L272.522 141.984L277.142 143.194V145.229H261.522V143.194L266.307 142.039L261.962 131.369H245.352L241.227 142.039L246.177 143.194V145.229H232.317ZM246.122 129.279H261.192L253.492 109.974L246.122 129.279ZM314.16 103.979H327.69V106.014L322.3 107.389V145.229H318.45L292.71 107.499V141.984L298.1 143.194V145.229H284.845V143.194L289.96 141.984V107.444L284.845 106.014V103.979H297.11L319.55 136.539V107.444L314.16 106.014V103.979ZM337.589 103.979H367.894V113.824H365.034L362.889 106.344H348.809V122.789H359.424L360.909 118.004H362.944V129.389H360.909L359.424 125.209H348.809V142.864H363.879L366.024 135.439H368.939V145.229H337.589V143.194L343.034 141.929V107.334L337.589 106.014V103.979ZM412.124 145.229V143.194L417.514 141.929V107.389L402.554 145.229H399.199L384.239 107.389V141.929L389.739 143.194V145.229H376.099V143.194L381.379 141.929V107.444L376.704 106.014V103.979H388.529L402.444 138.409L415.974 103.979H428.954V106.014L423.234 107.334V141.929L428.844 143.194V145.229H412.124ZM199.885 222.724C195.632 222.724 191.378 221.404 187.125 218.764V209.689H190.315L192.68 218.599C194.77 219.919 197.117 220.579 199.72 220.579C201.663 220.579 203.643 220.139 205.66 219.259C206.723 218.782 207.603 218.086 208.3 217.169C208.997 216.252 209.382 215.171 209.455 213.924C209.345 210.991 207.823 208.552 204.89 206.609C203.79 205.912 202.305 205.142 200.435 204.299C198.565 203.419 197.355 202.851 196.805 202.594C190.168 199.881 186.85 196.177 186.85 191.484C186.85 188.551 187.987 185.984 190.26 183.784C192.533 181.584 195.778 180.484 199.995 180.484C202.158 180.484 204.395 180.832 206.705 181.529C209.015 182.189 210.94 183.252 212.48 184.719V192.749H209.675L207.145 184.389C205.092 183.289 202.892 182.739 200.545 182.739C198.198 182.739 196.237 183.307 194.66 184.444C193.083 185.544 192.295 187.084 192.295 189.064C192.295 191.374 193.267 193.226 195.21 194.619C196.86 195.829 198.602 196.856 200.435 197.699C202.268 198.506 203.405 199.019 203.845 199.239C211.288 202.392 215.01 206.462 215.01 211.449C215.01 213.942 214.167 216.069 212.48 217.829C209.4 221.092 205.202 222.724 199.885 222.724ZM240.063 209.084C240.063 205.124 239.458 202.191 238.248 200.284C237.038 198.341 235.058 197.369 232.308 197.369C229.595 197.369 227.578 198.304 226.258 200.174C224.975 202.007 224.333 204.959 224.333 209.029C224.333 213.099 224.975 216.032 226.258 217.829C227.542 219.589 229.503 220.469 232.143 220.469C234.82 220.469 236.8 219.571 238.083 217.774C239.403 215.941 240.063 213.044 240.063 209.084ZM218.778 209.084C218.778 204.757 220.007 201.347 222.463 198.854C224.92 196.324 228.165 195.059 232.198 195.059C236.268 195.059 239.513 196.287 241.933 198.744C244.353 201.201 245.563 204.629 245.563 209.029C245.563 213.429 244.353 216.821 241.933 219.204C239.513 221.551 236.25 222.724 232.143 222.724C228.073 222.724 224.828 221.532 222.408 219.149C219.988 216.766 218.778 213.411 218.778 209.084ZM251.835 180.979H261.02V218.984L265.475 220.194V222.229H251.505V220.194L255.795 219.039V183.619L251.835 182.959V180.979ZM269.421 195.554H278.551V211.999C278.551 214.896 278.918 216.949 279.651 218.159C280.421 219.369 281.668 219.974 283.391 219.974C285.958 219.974 287.975 218.764 289.441 216.344C290.908 213.924 291.641 210.221 291.641 205.234V198.304L287.626 197.589V195.554H296.756V218.929L301.101 220.194V222.229H291.971V214.804C291.018 217.407 289.68 219.406 287.956 220.799C286.27 222.156 284.418 222.834 282.401 222.834C276.388 222.834 273.381 219.534 273.381 212.934V198.304L269.421 197.589V195.554ZM312.968 195.554H320.998V197.864H312.968V214.914C312.968 217.077 313.225 218.581 313.738 219.424C314.252 220.231 315.077 220.634 316.213 220.634C317.35 220.634 318.89 220.359 320.833 219.809V221.844C318.267 222.541 316.177 222.889 314.563 222.889C310.09 222.889 307.853 220.194 307.853 214.804V197.864H303.123V195.554H307.853V189.889L312.968 186.974V195.554ZM324.324 195.554H333.234V219.094L337.084 220.194V222.229H324.049V220.194L328.064 218.984V198.194L324.324 197.534V195.554ZM326.139 183.839C326.139 182.849 326.451 182.079 327.074 181.529C327.734 180.942 328.596 180.649 329.659 180.649C330.759 180.649 331.639 180.942 332.299 181.529C332.959 182.079 333.289 182.849 333.289 183.839C333.289 184.792 332.978 185.562 332.354 186.149C331.731 186.736 330.851 187.029 329.714 187.029C328.614 187.029 327.734 186.754 327.074 186.204C326.451 185.617 326.139 184.829 326.139 183.839ZM363.169 209.084C363.169 205.124 362.564 202.191 361.354 200.284C360.144 198.341 358.164 197.369 355.414 197.369C352.7 197.369 350.684 198.304 349.364 200.174C348.08 202.007 347.439 204.959 347.439 209.029C347.439 213.099 348.08 216.032 349.364 217.829C350.647 219.589 352.609 220.469 355.249 220.469C357.925 220.469 359.905 219.571 361.189 217.774C362.509 215.941 363.169 213.044 363.169 209.084ZM341.884 209.084C341.884 204.757 343.112 201.347 345.569 198.854C348.025 196.324 351.27 195.059 355.304 195.059C359.374 195.059 362.619 196.287 365.039 198.744C367.459 201.201 368.669 204.629 368.669 209.029C368.669 213.429 367.459 216.821 365.039 219.204C362.619 221.551 359.355 222.724 355.249 222.724C351.179 222.724 347.934 221.532 345.514 219.149C343.094 216.766 341.884 213.411 341.884 209.084ZM374.996 195.499H383.906V203.254C385.372 197.827 388.636 195.114 393.696 195.114C396.666 195.114 398.866 196.031 400.296 197.864C401.726 199.661 402.441 202.154 402.441 205.344V218.984L406.676 220.194V222.229H393.641V220.194L397.326 219.094V206.004C397.326 203.034 396.922 200.907 396.116 199.624C395.346 198.341 394.117 197.699 392.431 197.699C389.827 197.699 387.811 198.946 386.381 201.439C384.987 203.896 384.291 207.599 384.291 212.549V219.094L388.141 220.194V222.229H374.996V220.194L379.066 219.039V198.249L374.996 197.479V195.499ZM429.596 180.979H446.316V183.014L440.871 184.279V219.809H454.951L457.096 211.834H459.956V222.229H429.596V220.194L435.096 218.929V184.334L429.596 183.014V180.979ZM474.209 195.554H482.239V197.864H474.209V214.914C474.209 217.077 474.465 218.581 474.979 219.424C475.492 220.231 476.317 220.634 477.454 220.634C478.59 220.634 480.13 220.359 482.074 219.809V221.844C479.507 222.541 477.417 222.889 475.804 222.889C471.33 222.889 469.094 220.194 469.094 214.804V197.864H464.364V195.554H469.094V189.889L474.209 186.974V195.554ZM502.669 180.979H511.909V219.039L516.584 220.194V222.229H507.014V215.959C505.694 220.506 502.559 222.779 497.609 222.779C494.163 222.779 491.376 221.587 489.249 219.204C487.159 216.821 486.114 213.447 486.114 209.084C486.114 204.684 487.159 201.256 489.249 198.799C491.376 196.342 494.144 195.114 497.554 195.114C500.011 195.114 502.046 195.701 503.659 196.874C505.309 198.047 506.354 199.587 506.794 201.494V183.784L502.669 182.959V180.979ZM498.489 197.589C493.943 197.589 491.669 201.384 491.669 208.974C491.669 216.527 493.961 220.304 498.544 220.304C501.001 220.304 503.018 219.277 504.594 217.224C506.208 215.171 507.014 212.421 507.014 208.974C507.014 205.527 506.208 202.777 504.594 200.724C503.018 198.634 500.983 197.589 498.489 197.589Z" fill="#042640"/>
<path d="M185.898 238V237.482L187.256 237.16V228.102H184.694L184.148 230.146H183.42V227.5H192.604V230.146H191.876L191.33 228.102H188.726V237.174L190.154 237.482V238H185.898ZM192.365 231.21H194.689V235.396C194.689 236.133 194.783 236.656 194.969 236.964C195.165 237.272 195.483 237.426 195.921 237.426C196.575 237.426 197.088 237.118 197.461 236.502C197.835 235.886 198.021 234.943 198.021 233.674V231.91L196.999 231.728V231.21H199.323V237.16L200.429 237.482V238H198.105V236.11C197.863 236.773 197.522 237.281 197.083 237.636C196.654 237.981 196.183 238.154 195.669 238.154C194.139 238.154 193.373 237.314 193.373 235.634V231.91L192.365 231.728V231.21ZM201.504 231.21H203.828V233.198C204.015 232.638 204.304 232.171 204.696 231.798C205.088 231.415 205.564 231.224 206.124 231.224C206.469 231.224 206.885 231.35 207.37 231.602V233.282H206.824L206.39 232.134C206.213 232.041 206.012 231.994 205.788 231.994C205.377 231.994 204.962 232.237 204.542 232.722C204.131 233.198 203.926 233.711 203.926 234.262V237.188L204.962 237.482V238H201.532V237.482L202.596 237.188V231.91L201.504 231.714V231.21ZM208.37 231.196H210.638V233.17C211.011 231.789 211.842 231.098 213.13 231.098C213.886 231.098 214.446 231.331 214.81 231.798C215.174 232.255 215.356 232.89 215.356 233.702V237.174L216.434 237.482V238H213.116V237.482L214.054 237.202V233.87C214.054 233.114 213.951 232.573 213.746 232.246C213.55 231.919 213.237 231.756 212.808 231.756C212.145 231.756 211.632 232.073 211.268 232.708C210.913 233.333 210.736 234.276 210.736 235.536V237.202L211.716 237.482V238H208.37V237.482L209.406 237.188V231.896L208.37 231.7V231.196ZM217.77 231.21H220.038V237.202L221.018 237.482V238H217.7V237.482L218.722 237.174V231.882L217.77 231.714V231.21ZM218.232 228.228C218.232 227.976 218.312 227.78 218.47 227.64C218.638 227.491 218.858 227.416 219.128 227.416C219.408 227.416 219.632 227.491 219.8 227.64C219.968 227.78 220.052 227.976 220.052 228.228C220.052 228.471 219.973 228.667 219.814 228.816C219.656 228.965 219.432 229.04 219.142 229.04C218.862 229.04 218.638 228.97 218.47 228.83C218.312 228.681 218.232 228.48 218.232 228.228ZM222.52 231.196H224.788V233.17C225.161 231.789 225.992 231.098 227.28 231.098C228.036 231.098 228.596 231.331 228.96 231.798C229.324 232.255 229.506 232.89 229.506 233.702V237.174L230.584 237.482V238H227.266V237.482L228.204 237.202V233.87C228.204 233.114 228.101 232.573 227.896 232.246C227.7 231.919 227.387 231.756 226.958 231.756C226.295 231.756 225.782 232.073 225.418 232.708C225.063 233.333 224.886 234.276 224.886 235.536V237.202L225.866 237.482V238H222.52V237.482L223.556 237.188V231.896L222.52 231.7V231.196ZM233.153 238.798C232.705 239.246 232.481 239.736 232.481 240.268C232.481 240.8 232.691 241.239 233.111 241.584C233.54 241.939 234.142 242.116 234.917 242.116C235.701 242.116 236.345 241.943 236.849 241.598C237.362 241.262 237.619 240.819 237.619 240.268C237.619 239.615 237.171 239.251 236.275 239.176L234.287 239.022C233.792 238.985 233.414 238.91 233.153 238.798ZM234.889 231.616C233.862 231.616 233.349 232.311 233.349 233.702C233.349 234.421 233.475 234.948 233.727 235.284C233.979 235.62 234.371 235.788 234.903 235.788C235.957 235.788 236.485 235.107 236.485 233.744C236.485 232.988 236.359 232.447 236.107 232.12C235.855 231.784 235.449 231.616 234.889 231.616ZM238.627 231.238V231.728L237.367 232.218C237.647 232.629 237.787 233.128 237.787 233.716C237.787 234.509 237.511 235.139 236.961 235.606C236.41 236.073 235.71 236.306 234.861 236.306C234.59 236.306 234.277 236.269 233.923 236.194C233.465 236.446 233.237 236.717 233.237 237.006C233.237 237.286 233.316 237.482 233.475 237.594C233.643 237.706 234.021 237.79 234.609 237.846L235.995 237.958C236.853 237.977 237.469 238.145 237.843 238.462C238.216 238.779 238.403 239.255 238.403 239.89C238.403 240.749 238.067 241.416 237.395 241.892C236.723 242.368 235.869 242.606 234.833 242.606C233.797 242.606 232.994 242.415 232.425 242.032C231.855 241.649 231.571 241.103 231.571 240.394C231.571 239.694 231.995 239.115 232.845 238.658C232.471 238.341 232.285 237.986 232.285 237.594C232.285 237.202 232.373 236.903 232.551 236.698C232.728 236.493 233.05 236.283 233.517 236.068C232.546 235.573 232.061 234.785 232.061 233.702C232.061 232.899 232.317 232.26 232.831 231.784C233.344 231.299 234.035 231.056 234.903 231.056C235.323 231.056 235.771 231.117 236.247 231.238H238.627ZM251.372 227.5H254.816V228.018L253.444 228.368V238H252.464L245.912 228.396V237.174L247.284 237.482V238H243.91V237.482L245.212 237.174V228.382L243.91 228.018V227.5H247.032L252.744 235.788V228.382L251.372 228.018V227.5ZM263.582 238H261.118V236.586C260.679 237.613 259.909 238.126 258.808 238.126C258.071 238.126 257.511 237.967 257.128 237.65C256.745 237.323 256.554 236.871 256.554 236.292C256.554 235.471 256.913 234.883 257.632 234.528C258.36 234.164 259.513 233.968 261.09 233.94V233.338C261.09 232.675 260.955 232.227 260.684 231.994C260.413 231.751 260.012 231.63 259.48 231.63C258.948 231.63 258.486 231.751 258.094 231.994L257.632 233.38H257.114V231.798C257.347 231.602 257.669 231.439 258.08 231.308C258.491 231.168 258.939 231.098 259.424 231.098C260.413 231.098 261.155 231.289 261.65 231.672C262.154 232.045 262.406 232.713 262.406 233.674V237.16L263.582 237.482V238ZM259.172 237.538C259.769 237.538 260.236 237.309 260.572 236.852C260.917 236.385 261.09 235.578 261.09 234.43C259.485 234.43 258.505 234.677 258.15 235.172C257.982 235.405 257.898 235.751 257.898 236.208C257.898 236.665 257.996 237.001 258.192 237.216C258.397 237.431 258.724 237.538 259.172 237.538ZM266.929 231.21H268.973V231.798H266.929V236.138C266.929 236.689 266.994 237.071 267.125 237.286C267.255 237.491 267.465 237.594 267.755 237.594C268.044 237.594 268.436 237.524 268.931 237.384V237.902C268.277 238.079 267.745 238.168 267.335 238.168C266.196 238.168 265.627 237.482 265.627 236.11V231.798H264.423V231.21H265.627V229.768L266.929 229.026V231.21ZM269.707 231.21H272.031V235.396C272.031 236.133 272.124 236.656 272.311 236.964C272.507 237.272 272.824 237.426 273.263 237.426C273.916 237.426 274.43 237.118 274.803 236.502C275.176 235.886 275.363 234.943 275.363 233.674V231.91L274.341 231.728V231.21H276.665V237.16L277.771 237.482V238H275.447V236.11C275.204 236.773 274.864 237.281 274.425 237.636C273.996 237.981 273.524 238.154 273.011 238.154C271.48 238.154 270.715 237.314 270.715 235.634V231.91L269.707 231.728V231.21ZM278.846 231.21H281.17V233.198C281.357 232.638 281.646 232.171 282.038 231.798C282.43 231.415 282.906 231.224 283.466 231.224C283.811 231.224 284.227 231.35 284.712 231.602V233.282H284.166L283.732 232.134C283.555 232.041 283.354 231.994 283.13 231.994C282.719 231.994 282.304 232.237 281.884 232.722C281.473 233.198 281.268 233.711 281.268 234.262V237.188L282.304 237.482V238H278.874V237.482L279.938 237.188V231.91L278.846 231.714V231.21ZM291.604 235.634V237.23C291.072 237.837 290.213 238.14 289.028 238.14C287.852 238.14 286.979 237.832 286.41 237.216C285.84 236.591 285.556 235.727 285.556 234.626C285.556 233.525 285.854 232.661 286.452 232.036C287.058 231.401 287.87 231.084 288.888 231.084C289.494 231.084 289.998 231.196 290.4 231.42C290.81 231.644 291.104 231.943 291.282 232.316C291.562 232.932 291.702 233.581 291.702 234.262H286.956C286.956 235.317 287.077 236.119 287.32 236.67C287.6 237.295 288.15 237.608 288.972 237.608C289.261 237.608 289.536 237.571 289.798 237.496C290.068 237.412 290.264 237.333 290.386 237.258C290.507 237.183 290.568 237.137 290.568 237.118L291.086 235.634H291.604ZM288.86 231.63C288.066 231.63 287.525 231.994 287.236 232.722C287.096 233.049 287.012 233.408 286.984 233.8H290.484C290.484 232.353 289.942 231.63 288.86 231.63ZM293.213 230.398V226.87H294.991L293.871 230.398H293.213ZM302.045 235.998C302.045 236.623 301.811 237.127 301.345 237.51C300.878 237.883 300.159 238.07 299.189 238.07C298.227 238.07 297.476 237.813 296.935 237.3V235.676H297.481L297.887 237.048C298.213 237.375 298.736 237.538 299.455 237.538C299.959 237.538 300.341 237.426 300.603 237.202C300.864 236.978 300.995 236.707 300.995 236.39C300.995 236.073 300.859 235.825 300.589 235.648C300.318 235.471 299.781 235.256 298.979 235.004C298.185 234.743 297.63 234.472 297.313 234.192C296.995 233.912 296.837 233.497 296.837 232.946C296.837 232.386 297.065 231.924 297.523 231.56C297.98 231.196 298.652 231.014 299.539 231.014C300.425 231.014 301.139 231.224 301.681 231.644V233.254H301.135L300.701 231.91C300.393 231.667 299.982 231.546 299.469 231.546C298.451 231.546 297.943 231.91 297.943 232.638C297.943 232.909 298.087 233.147 298.377 233.352C298.675 233.548 299.217 233.767 300.001 234.01C300.785 234.253 301.321 234.528 301.611 234.836C301.9 235.135 302.045 235.522 302.045 235.998ZM313.468 233.464H317.794V233.982L316.408 234.304V237.496C315.932 237.711 315.321 237.879 314.574 238C313.828 238.121 313.142 238.182 312.516 238.182C310.883 238.182 309.623 237.701 308.736 236.74C307.85 235.779 307.406 234.463 307.406 232.792C307.406 231.121 307.84 229.787 308.708 228.788C309.576 227.78 310.804 227.276 312.39 227.276C313.034 227.276 313.702 227.365 314.392 227.542C315.083 227.71 315.652 228.004 316.1 228.424V230.79H315.372L314.686 228.466C314.276 228.027 313.501 227.808 312.362 227.808C311.224 227.808 310.384 228.233 309.842 229.082C309.301 229.931 309.03 231.131 309.03 232.68C309.03 235.975 310.183 237.622 312.488 237.622C313.216 237.622 314.033 237.51 314.938 237.286V234.304L313.468 233.982V233.464ZM318.491 231.21H320.759V237.202L321.739 237.482V238H318.421V237.482L319.443 237.174V231.882L318.491 231.714V231.21ZM318.953 228.228C318.953 227.976 319.032 227.78 319.191 227.64C319.359 227.491 319.578 227.416 319.849 227.416C320.129 227.416 320.353 227.491 320.521 227.64C320.689 227.78 320.773 227.976 320.773 228.228C320.773 228.471 320.694 228.667 320.535 228.816C320.376 228.965 320.152 229.04 319.863 229.04C319.583 229.04 319.359 228.97 319.191 228.83C319.032 228.681 318.953 228.48 318.953 228.228ZM327.553 229.6H326.965L326.643 228.396C326.456 228.293 326.283 228.242 326.125 228.242C325.807 228.242 325.565 228.401 325.397 228.718C325.229 229.035 325.145 229.446 325.145 229.95C325.145 230.454 325.243 230.869 325.439 231.196H327.119V231.77H325.467V237.174L326.531 237.482V238H323.171V237.482L324.137 237.174V231.77H322.863V231.196H324.137C324.137 229.908 324.286 228.984 324.585 228.424C324.883 227.855 325.397 227.57 326.125 227.57C326.498 227.57 326.974 227.649 327.553 227.808V229.6ZM330.995 231.21H333.039V231.798H330.995V236.138C330.995 236.689 331.06 237.071 331.191 237.286C331.322 237.491 331.532 237.594 331.821 237.594C332.11 237.594 332.502 237.524 332.997 237.384V237.902C332.344 238.079 331.812 238.168 331.401 238.168C330.262 238.168 329.693 237.482 329.693 236.11V231.798H328.489V231.21H329.693V229.768L330.995 229.026V231.21ZM339.178 235.998C339.178 236.623 338.944 237.127 338.478 237.51C338.011 237.883 337.292 238.07 336.322 238.07C335.36 238.07 334.609 237.813 334.068 237.3V235.676H334.614L335.02 237.048C335.346 237.375 335.869 237.538 336.588 237.538C337.092 237.538 337.474 237.426 337.736 237.202C337.997 236.978 338.128 236.707 338.128 236.39C338.128 236.073 337.992 235.825 337.722 235.648C337.451 235.471 336.914 235.256 336.112 235.004C335.318 234.743 334.763 234.472 334.446 234.192C334.128 233.912 333.97 233.497 333.97 232.946C333.97 232.386 334.198 231.924 334.656 231.56C335.113 231.196 335.785 231.014 336.672 231.014C337.558 231.014 338.272 231.224 338.814 231.644V233.254H338.268L337.834 231.91C337.526 231.667 337.115 231.546 336.602 231.546C335.584 231.546 335.076 231.91 335.076 232.638C335.076 232.909 335.22 233.147 335.51 233.352C335.808 233.548 336.35 233.767 337.134 234.01C337.918 234.253 338.454 234.528 338.744 234.836C339.033 235.135 339.178 235.522 339.178 235.998ZM344.399 231.21H346.667V237.202L347.647 237.482V238H344.329V237.482L345.351 237.174V231.882L344.399 231.714V231.21ZM344.861 228.228C344.861 227.976 344.941 227.78 345.099 227.64C345.267 227.491 345.487 227.416 345.757 227.416C346.037 227.416 346.261 227.491 346.429 227.64C346.597 227.78 346.681 227.976 346.681 228.228C346.681 228.471 346.602 228.667 346.443 228.816C346.285 228.965 346.061 229.04 345.771 229.04C345.491 229.04 345.267 228.97 345.099 228.83C344.941 228.681 344.861 228.48 344.861 228.228ZM349.149 231.196H351.417V233.17C351.79 231.789 352.621 231.098 353.909 231.098C354.665 231.098 355.225 231.331 355.589 231.798C355.953 232.255 356.135 232.89 356.135 233.702V237.174L357.213 237.482V238H353.895V237.482L354.833 237.202V233.87C354.833 233.114 354.73 232.573 354.525 232.246C354.329 231.919 354.016 231.756 353.587 231.756C352.924 231.756 352.411 232.073 352.047 232.708C351.692 233.333 351.515 234.276 351.515 235.536V237.202L352.495 237.482V238H349.149V237.482L350.185 237.188V231.896L349.149 231.7V231.196ZM360.636 231.21H362.68V231.798H360.636V236.138C360.636 236.689 360.701 237.071 360.832 237.286C360.962 237.491 361.172 237.594 361.462 237.594C361.751 237.594 362.143 237.524 362.638 237.384V237.902C361.984 238.079 361.452 238.168 361.042 238.168C359.903 238.168 359.334 237.482 359.334 236.11V231.798H358.13V231.21H359.334V229.768L360.636 229.026V231.21ZM368.656 234.654C368.656 233.646 368.502 232.899 368.194 232.414C367.886 231.919 367.382 231.672 366.682 231.672C365.991 231.672 365.478 231.91 365.142 232.386C364.815 232.853 364.652 233.604 364.652 234.64C364.652 235.676 364.815 236.423 365.142 236.88C365.469 237.328 365.968 237.552 366.64 237.552C367.321 237.552 367.825 237.323 368.152 236.866C368.488 236.399 368.656 235.662 368.656 234.654ZM363.238 234.654C363.238 233.553 363.551 232.685 364.176 232.05C364.801 231.406 365.627 231.084 366.654 231.084C367.69 231.084 368.516 231.397 369.132 232.022C369.748 232.647 370.056 233.52 370.056 234.64C370.056 235.76 369.748 236.623 369.132 237.23C368.516 237.827 367.685 238.126 366.64 238.126C365.604 238.126 364.778 237.823 364.162 237.216C363.546 236.609 363.238 235.755 363.238 234.654ZM378.964 238.126C377.881 238.126 376.799 237.79 375.716 237.118V234.808H376.528L377.13 237.076C377.662 237.412 378.259 237.58 378.922 237.58C379.417 237.58 379.921 237.468 380.434 237.244C380.705 237.123 380.929 236.945 381.106 236.712C381.283 236.479 381.381 236.203 381.4 235.886C381.372 235.139 380.985 234.519 380.238 234.024C379.958 233.847 379.58 233.651 379.104 233.436C378.628 233.212 378.32 233.067 378.18 233.002C376.491 232.311 375.646 231.369 375.646 230.174C375.646 229.427 375.935 228.774 376.514 228.214C377.093 227.654 377.919 227.374 378.992 227.374C379.543 227.374 380.112 227.463 380.7 227.64C381.288 227.808 381.778 228.079 382.17 228.452V230.496H381.456L380.812 228.368C380.289 228.088 379.729 227.948 379.132 227.948C378.535 227.948 378.035 228.093 377.634 228.382C377.233 228.662 377.032 229.054 377.032 229.558C377.032 230.146 377.279 230.617 377.774 230.972C378.194 231.28 378.637 231.541 379.104 231.756C379.571 231.961 379.86 232.092 379.972 232.148C381.867 232.951 382.814 233.987 382.814 235.256C382.814 235.891 382.599 236.432 382.17 236.88C381.386 237.711 380.317 238.126 378.964 238.126ZM383.703 231.21H386.027V235.396C386.027 236.133 386.121 236.656 386.307 236.964C386.503 237.272 386.821 237.426 387.259 237.426C387.913 237.426 388.426 237.118 388.799 236.502C389.173 235.886 389.359 234.943 389.359 233.674V231.91L388.337 231.728V231.21H390.661V237.16L391.767 237.482V238H389.443V236.11C389.201 236.773 388.86 237.281 388.421 237.636C387.992 237.981 387.521 238.154 387.007 238.154C385.477 238.154 384.711 237.314 384.711 235.634V231.91L383.703 231.728V231.21ZM397.994 235.998C397.994 236.623 397.761 237.127 397.294 237.51C396.827 237.883 396.109 238.07 395.138 238.07C394.177 238.07 393.425 237.813 392.884 237.3V235.676H393.43L393.836 237.048C394.163 237.375 394.685 237.538 395.404 237.538C395.908 237.538 396.291 237.426 396.552 237.202C396.813 236.978 396.944 236.707 396.944 236.39C396.944 236.073 396.809 235.825 396.538 235.648C396.267 235.471 395.731 235.256 394.928 235.004C394.135 234.743 393.579 234.472 393.262 234.192C392.945 233.912 392.786 233.497 392.786 232.946C392.786 232.386 393.015 231.924 393.472 231.56C393.929 231.196 394.601 231.014 395.488 231.014C396.375 231.014 397.089 231.224 397.63 231.644V233.254H397.084L396.65 231.91C396.342 231.667 395.931 231.546 395.418 231.546C394.401 231.546 393.892 231.91 393.892 232.638C393.892 232.909 394.037 233.147 394.326 233.352C394.625 233.548 395.166 233.767 395.95 234.01C396.734 234.253 397.271 234.528 397.56 234.836C397.849 235.135 397.994 235.522 397.994 235.998ZM401.364 231.21H403.408V231.798H401.364V236.138C401.364 236.689 401.429 237.071 401.56 237.286C401.691 237.491 401.901 237.594 402.19 237.594C402.479 237.594 402.871 237.524 403.366 237.384V237.902C402.713 238.079 402.181 238.168 401.77 238.168C400.631 238.168 400.062 237.482 400.062 236.11V231.798H398.858V231.21H400.062V229.768L401.364 229.026V231.21ZM411.252 238H408.788V236.586C408.349 237.613 407.579 238.126 406.478 238.126C405.741 238.126 405.181 237.967 404.798 237.65C404.415 237.323 404.224 236.871 404.224 236.292C404.224 235.471 404.583 234.883 405.302 234.528C406.03 234.164 407.183 233.968 408.76 233.94V233.338C408.76 232.675 408.625 232.227 408.354 231.994C408.083 231.751 407.682 231.63 407.15 231.63C406.618 231.63 406.156 231.751 405.764 231.994L405.302 233.38H404.784V231.798C405.017 231.602 405.339 231.439 405.75 231.308C406.161 231.168 406.609 231.098 407.094 231.098C408.083 231.098 408.825 231.289 409.32 231.672C409.824 232.045 410.076 232.713 410.076 233.674V237.16L411.252 237.482V238ZM406.842 237.538C407.439 237.538 407.906 237.309 408.242 236.852C408.587 236.385 408.76 235.578 408.76 234.43C407.155 234.43 406.175 234.677 405.82 235.172C405.652 235.405 405.568 235.751 405.568 236.208C405.568 236.665 405.666 237.001 405.862 237.216C406.067 237.431 406.394 237.538 406.842 237.538ZM412.513 231.21H414.781V237.202L415.761 237.482V238H412.443V237.482L413.465 237.174V231.882L412.513 231.714V231.21ZM412.975 228.228C412.975 227.976 413.054 227.78 413.213 227.64C413.381 227.491 413.6 227.416 413.87 227.416C414.151 227.416 414.375 227.491 414.543 227.64C414.711 227.78 414.795 227.976 414.795 228.228C414.795 228.471 414.715 228.667 414.557 228.816C414.398 228.965 414.174 229.04 413.885 229.04C413.605 229.04 413.381 228.97 413.213 228.83C413.054 228.681 412.975 228.48 412.975 228.228ZM417.262 231.196H419.53V233.17C419.904 231.789 420.734 231.098 422.022 231.098C422.778 231.098 423.338 231.331 423.702 231.798C424.066 232.255 424.248 232.89 424.248 233.702V237.174L425.326 237.482V238H422.008V237.482L422.946 237.202V233.87C422.946 233.114 422.844 232.573 422.638 232.246C422.442 231.919 422.13 231.756 421.7 231.756C421.038 231.756 420.524 232.073 420.16 232.708C419.806 233.333 419.628 234.276 419.628 235.536V237.202L420.608 237.482V238H417.262V237.482L418.298 237.188V231.896L417.262 231.7V231.196ZM433.551 238H431.087V236.586C430.648 237.613 429.878 238.126 428.777 238.126C428.04 238.126 427.48 237.967 427.097 237.65C426.714 237.323 426.523 236.871 426.523 236.292C426.523 235.471 426.882 234.883 427.601 234.528C428.329 234.164 429.482 233.968 431.059 233.94V233.338C431.059 232.675 430.924 232.227 430.653 231.994C430.382 231.751 429.981 231.63 429.449 231.63C428.917 231.63 428.455 231.751 428.063 231.994L427.601 233.38H427.083V231.798C427.316 231.602 427.638 231.439 428.049 231.308C428.46 231.168 428.908 231.098 429.393 231.098C430.382 231.098 431.124 231.289 431.619 231.672C432.123 232.045 432.375 232.713 432.375 233.674V237.16L433.551 237.482V238ZM429.141 237.538C429.738 237.538 430.205 237.309 430.541 236.852C430.886 236.385 431.059 235.578 431.059 234.43C429.454 234.43 428.474 234.677 428.119 235.172C427.951 235.405 427.867 235.751 427.867 236.208C427.867 236.665 427.965 237.001 428.161 237.216C428.366 237.431 428.693 237.538 429.141 237.538ZM434.671 227.5H437.163V232.792C437.359 232.223 437.663 231.793 438.073 231.504C438.484 231.215 438.955 231.07 439.487 231.07C440.355 231.07 441.06 231.383 441.601 232.008C442.143 232.624 442.413 233.492 442.413 234.612C442.413 235.732 442.143 236.6 441.601 237.216C441.069 237.832 440.36 238.14 439.473 238.14C438.904 238.14 438.409 237.986 437.989 237.678C437.569 237.37 437.266 236.927 437.079 236.348V238H434.671V237.482L435.833 237.16V228.214L434.671 228.004V227.5ZM439.291 231.7C438.685 231.7 438.176 231.966 437.765 232.498C437.364 233.021 437.163 233.721 437.163 234.598C437.163 235.466 437.355 236.171 437.737 236.712C438.129 237.244 438.647 237.51 439.291 237.51C440.43 237.51 440.999 236.544 440.999 234.612C440.999 232.671 440.43 231.7 439.291 231.7ZM444.182 227.5H446.52V237.174L447.654 237.482V238H444.098V237.482L445.19 237.188V228.172L444.182 228.004V227.5ZM454.832 235.634V237.23C454.3 237.837 453.442 238.14 452.256 238.14C451.08 238.14 450.208 237.832 449.638 237.216C449.069 236.591 448.784 235.727 448.784 234.626C448.784 233.525 449.083 232.661 449.68 232.036C450.287 231.401 451.099 231.084 452.116 231.084C452.723 231.084 453.227 231.196 453.628 231.42C454.039 231.644 454.333 231.943 454.51 232.316C454.79 232.932 454.93 233.581 454.93 234.262H450.184C450.184 235.317 450.306 236.119 450.548 236.67C450.828 237.295 451.379 237.608 452.2 237.608C452.49 237.608 452.765 237.571 453.026 237.496C453.297 237.412 453.493 237.333 453.614 237.258C453.736 237.183 453.796 237.137 453.796 237.118L454.314 235.634H454.832ZM452.088 231.63C451.295 231.63 450.754 231.994 450.464 232.722C450.324 233.049 450.24 233.408 450.212 233.8H453.712C453.712 232.353 453.171 231.63 452.088 231.63ZM464.017 238.126C462.934 238.126 461.851 237.79 460.769 237.118V234.808H461.581L462.183 237.076C462.715 237.412 463.312 237.58 463.975 237.58C464.469 237.58 464.973 237.468 465.487 237.244C465.757 237.123 465.981 236.945 466.159 236.712C466.336 236.479 466.434 236.203 466.453 235.886C466.425 235.139 466.037 234.519 465.291 234.024C465.011 233.847 464.633 233.651 464.157 233.436C463.681 233.212 463.373 233.067 463.233 233.002C461.543 232.311 460.699 231.369 460.699 230.174C460.699 229.427 460.988 228.774 461.567 228.214C462.145 227.654 462.971 227.374 464.045 227.374C464.595 227.374 465.165 227.463 465.753 227.64C466.341 227.808 466.831 228.079 467.223 228.452V230.496H466.509L465.865 228.368C465.342 228.088 464.782 227.948 464.185 227.948C463.587 227.948 463.088 228.093 462.687 228.382C462.285 228.662 462.085 229.054 462.085 229.558C462.085 230.146 462.332 230.617 462.827 230.972C463.247 231.28 463.69 231.541 464.157 231.756C464.623 231.961 464.913 232.092 465.025 232.148C466.919 232.951 467.867 233.987 467.867 235.256C467.867 235.891 467.652 236.432 467.223 236.88C466.439 237.711 465.37 238.126 464.017 238.126ZM474.244 234.654C474.244 233.646 474.09 232.899 473.782 232.414C473.474 231.919 472.97 231.672 472.27 231.672C471.579 231.672 471.066 231.91 470.73 232.386C470.403 232.853 470.24 233.604 470.24 234.64C470.24 235.676 470.403 236.423 470.73 236.88C471.057 237.328 471.556 237.552 472.228 237.552C472.909 237.552 473.413 237.323 473.74 236.866C474.076 236.399 474.244 235.662 474.244 234.654ZM468.826 234.654C468.826 233.553 469.139 232.685 469.764 232.05C470.389 231.406 471.215 231.084 472.242 231.084C473.278 231.084 474.104 231.397 474.72 232.022C475.336 232.647 475.644 233.52 475.644 234.64C475.644 235.76 475.336 236.623 474.72 237.23C474.104 237.827 473.273 238.126 472.228 238.126C471.192 238.126 470.366 237.823 469.75 237.216C469.134 236.609 468.826 235.755 468.826 234.654ZM477.24 227.5H479.578V237.174L480.712 237.482V238H477.156V237.482L478.248 237.188V228.172L477.24 228.004V227.5ZM481.717 231.21H484.041V235.396C484.041 236.133 484.134 236.656 484.321 236.964C484.517 237.272 484.834 237.426 485.273 237.426C485.926 237.426 486.44 237.118 486.813 236.502C487.186 235.886 487.373 234.943 487.373 233.674V231.91L486.351 231.728V231.21H488.675V237.16L489.781 237.482V238H487.457V236.11C487.214 236.773 486.874 237.281 486.435 237.636C486.006 237.981 485.534 238.154 485.021 238.154C483.49 238.154 482.725 237.314 482.725 235.634V231.91L481.717 231.728V231.21ZM492.802 231.21H494.846V231.798H492.802V236.138C492.802 236.689 492.867 237.071 492.998 237.286C493.128 237.491 493.338 237.594 493.628 237.594C493.917 237.594 494.309 237.524 494.804 237.384V237.902C494.15 238.079 493.618 238.168 493.208 238.168C492.069 238.168 491.5 237.482 491.5 236.11V231.798H490.296V231.21H491.5V229.768L492.802 229.026V231.21ZM495.692 231.21H497.96V237.202L498.94 237.482V238H495.622V237.482L496.644 237.174V231.882L495.692 231.714V231.21ZM496.154 228.228C496.154 227.976 496.234 227.78 496.392 227.64C496.56 227.491 496.78 227.416 497.05 227.416C497.33 227.416 497.554 227.491 497.722 227.64C497.89 227.78 497.974 227.976 497.974 228.228C497.974 228.471 497.895 228.667 497.736 228.816C497.578 228.965 497.354 229.04 497.064 229.04C496.784 229.04 496.56 228.97 496.392 228.83C496.234 228.681 496.154 228.48 496.154 228.228ZM505.58 234.654C505.58 233.646 505.426 232.899 505.118 232.414C504.81 231.919 504.306 231.672 503.606 231.672C502.915 231.672 502.402 231.91 502.066 232.386C501.739 232.853 501.576 233.604 501.576 234.64C501.576 235.676 501.739 236.423 502.066 236.88C502.393 237.328 502.892 237.552 503.564 237.552C504.245 237.552 504.749 237.323 505.076 236.866C505.412 236.399 505.58 235.662 505.58 234.654ZM500.162 234.654C500.162 233.553 500.475 232.685 501.1 232.05C501.725 231.406 502.551 231.084 503.578 231.084C504.614 231.084 505.44 231.397 506.056 232.022C506.672 232.647 506.98 233.52 506.98 234.64C506.98 235.76 506.672 236.623 506.056 237.23C505.44 237.827 504.609 238.126 503.564 238.126C502.528 238.126 501.702 237.823 501.086 237.216C500.47 236.609 500.162 235.755 500.162 234.654ZM508.59 231.196H510.858V233.17C511.232 231.789 512.062 231.098 513.35 231.098C514.106 231.098 514.666 231.331 515.03 231.798C515.394 232.255 515.576 232.89 515.576 233.702V237.174L516.654 237.482V238H513.336V237.482L514.274 237.202V233.87C514.274 233.114 514.172 232.573 513.966 232.246C513.77 231.919 513.458 231.756 513.028 231.756C512.366 231.756 511.852 232.073 511.488 232.708C511.134 233.333 510.956 234.276 510.956 235.536V237.202L511.936 237.482V238H508.59V237.482L509.626 237.188V231.896L508.59 231.7V231.196ZM523.283 235.998C523.283 236.623 523.05 237.127 522.583 237.51C522.116 237.883 521.398 238.07 520.427 238.07C519.466 238.07 518.714 237.813 518.173 237.3V235.676H518.719L519.125 237.048C519.452 237.375 519.974 237.538 520.693 237.538C521.197 237.538 521.58 237.426 521.841 237.202C522.102 236.978 522.233 236.707 522.233 236.39C522.233 236.073 522.098 235.825 521.827 235.648C521.556 235.471 521.02 235.256 520.217 235.004C519.424 234.743 518.868 234.472 518.551 234.192C518.234 233.912 518.075 233.497 518.075 232.946C518.075 232.386 518.304 231.924 518.761 231.56C519.218 231.196 519.89 231.014 520.777 231.014C521.664 231.014 522.378 231.224 522.919 231.644V233.254H522.373L521.939 231.91C521.631 231.667 521.22 231.546 520.707 231.546C519.69 231.546 519.181 231.91 519.181 232.638C519.181 232.909 519.326 233.147 519.615 233.352C519.914 233.548 520.455 233.767 521.239 234.01C522.023 234.253 522.56 234.528 522.849 234.836C523.138 235.135 523.283 235.522 523.283 235.998Z" fill="#042640"/>
<path d="M194 244L118.001 276.805L24 226.626V111.472L118.001 51L194 99.5" stroke="#042640" stroke-width="5"/>
<path d="M176 235L121.148 257.902L38.4526 216.831V122.498L118.522 71.1599L176 107" stroke="#042640" stroke-width="2"/>
<path d="M226.835 145.229H215.725L202.14 126.859H199.06V141.929L204.67 143.194V145.229H187.95V143.194L193.285 141.929V107.279L187.95 106.014V103.979H204.505C210.335 103.979 214.515 104.859 217.045 106.619C219.575 108.379 220.84 111.202 220.84 115.089C220.84 118.976 219.703 121.872 217.43 123.779C215.157 125.649 212.168 126.584 208.465 126.584L220.84 141.984L226.835 143.194V145.229ZM199.06 106.179V124.714H205.22C208.337 124.714 210.647 123.981 212.15 122.514C213.69 121.047 214.46 118.701 214.46 115.474C214.46 112.211 213.708 109.846 212.205 108.379C210.702 106.912 208.373 106.179 205.22 106.179H199.06ZM232.317 145.229V143.194L237.212 141.984L253.877 103.539H256.682L272.522 141.984L277.142 143.194V145.229H261.522V143.194L266.307 142.039L261.962 131.369H245.352L241.227 142.039L246.177 143.194V145.229H232.317ZM246.122 129.279H261.192L253.492 109.974L246.122 129.279ZM314.16 103.979H327.69V106.014L322.3 107.389V145.229H318.45L292.71 107.499V141.984L298.1 143.194V145.229H284.845V143.194L289.96 141.984V107.444L284.845 106.014V103.979H297.11L319.55 136.539V107.444L314.16 106.014V103.979ZM337.589 103.979H367.894V113.824H365.034L362.889 106.344H348.809V122.789H359.424L360.909 118.004H362.944V129.389H360.909L359.424 125.209H348.809V142.864H363.879L366.024 135.439H368.939V145.229H337.589V143.194L343.034 141.929V107.334L337.589 106.014V103.979ZM412.124 145.229V143.194L417.514 141.929V107.389L402.554 145.229H399.199L384.239 107.389V141.929L389.739 143.194V145.229H376.099V143.194L381.379 141.929V107.444L376.704 106.014V103.979H388.529L402.444 138.409L415.974 103.979H428.954V106.014L423.234 107.334V141.929L428.844 143.194V145.229H412.124ZM199.885 222.724C195.632 222.724 191.378 221.404 187.125 218.764V209.689H190.315L192.68 218.599C194.77 219.919 197.117 220.579 199.72 220.579C201.663 220.579 203.643 220.139 205.66 219.259C206.723 218.782 207.603 218.086 208.3 217.169C208.997 216.252 209.382 215.171 209.455 213.924C209.345 210.991 207.823 208.552 204.89 206.609C203.79 205.912 202.305 205.142 200.435 204.299C198.565 203.419 197.355 202.851 196.805 202.594C190.168 199.881 186.85 196.177 186.85 191.484C186.85 188.551 187.987 185.984 190.26 183.784C192.533 181.584 195.778 180.484 199.995 180.484C202.158 180.484 204.395 180.832 206.705 181.529C209.015 182.189 210.94 183.252 212.48 184.719V192.749H209.675L207.145 184.389C205.092 183.289 202.892 182.739 200.545 182.739C198.198 182.739 196.237 183.307 194.66 184.444C193.083 185.544 192.295 187.084 192.295 189.064C192.295 191.374 193.267 193.226 195.21 194.619C196.86 195.829 198.602 196.856 200.435 197.699C202.268 198.506 203.405 199.019 203.845 199.239C211.288 202.392 215.01 206.462 215.01 211.449C215.01 213.942 214.167 216.069 212.48 217.829C209.4 221.092 205.202 222.724 199.885 222.724ZM240.063 209.084C240.063 205.124 239.458 202.191 238.248 200.284C237.038 198.341 235.058 197.369 232.308 197.369C229.595 197.369 227.578 198.304 226.258 200.174C224.975 202.007 224.333 204.959 224.333 209.029C224.333 213.099 224.975 216.032 226.258 217.829C227.542 219.589 229.503 220.469 232.143 220.469C234.82 220.469 236.8 219.571 238.083 217.774C239.403 215.941 240.063 213.044 240.063 209.084ZM218.778 209.084C218.778 204.757 220.007 201.347 222.463 198.854C224.92 196.324 228.165 195.059 232.198 195.059C236.268 195.059 239.513 196.287 241.933 198.744C244.353 201.201 245.563 204.629 245.563 209.029C245.563 213.429 244.353 216.821 241.933 219.204C239.513 221.551 236.25 222.724 232.143 222.724C228.073 222.724 224.828 221.532 222.408 219.149C219.988 216.766 218.778 213.411 218.778 209.084ZM251.835 180.979H261.02V218.984L265.475 220.194V222.229H251.505V220.194L255.795 219.039V183.619L251.835 182.959V180.979ZM269.421 195.554H278.551V211.999C278.551 214.896 278.918 216.949 279.651 218.159C280.421 219.369 281.668 219.974 283.391 219.974C285.958 219.974 287.975 218.764 289.441 216.344C290.908 213.924 291.641 210.221 291.641 205.234V198.304L287.626 197.589V195.554H296.756V218.929L301.101 220.194V222.229H291.971V214.804C291.018 217.407 289.68 219.406 287.956 220.799C286.27 222.156 284.418 222.834 282.401 222.834C276.388 222.834 273.381 219.534 273.381 212.934V198.304L269.421 197.589V195.554ZM312.968 195.554H320.998V197.864H312.968V214.914C312.968 217.077 313.225 218.581 313.738 219.424C314.252 220.231 315.077 220.634 316.213 220.634C317.35 220.634 318.89 220.359 320.833 219.809V221.844C318.267 222.541 316.177 222.889 314.563 222.889C310.09 222.889 307.853 220.194 307.853 214.804V197.864H303.123V195.554H307.853V189.889L312.968 186.974V195.554ZM324.324 195.554H333.234V219.094L337.084 220.194V222.229H324.049V220.194L328.064 218.984V198.194L324.324 197.534V195.554ZM326.139 183.839C326.139 182.849 326.451 182.079 327.074 181.529C327.734 180.942 328.596 180.649 329.659 180.649C330.759 180.649 331.639 180.942 332.299 181.529C332.959 182.079 333.289 182.849 333.289 183.839C333.289 184.792 332.978 185.562 332.354 186.149C331.731 186.736 330.851 187.029 329.714 187.029C328.614 187.029 327.734 186.754 327.074 186.204C326.451 185.617 326.139 184.829 326.139 183.839ZM363.169 209.084C363.169 205.124 362.564 202.191 361.354 200.284C360.144 198.341 358.164 197.369 355.414 197.369C352.7 197.369 350.684 198.304 349.364 200.174C348.08 202.007 347.439 204.959 347.439 209.029C347.439 213.099 348.08 216.032 349.364 217.829C350.647 219.589 352.609 220.469 355.249 220.469C357.925 220.469 359.905 219.571 361.189 217.774C362.509 215.941 363.169 213.044 363.169 209.084ZM341.884 209.084C341.884 204.757 343.112 201.347 345.569 198.854C348.025 196.324 351.27 195.059 355.304 195.059C359.374 195.059 362.619 196.287 365.039 198.744C367.459 201.201 368.669 204.629 368.669 209.029C368.669 213.429 367.459 216.821 365.039 219.204C362.619 221.551 359.355 222.724 355.249 222.724C351.179 222.724 347.934 221.532 345.514 219.149C343.094 216.766 341.884 213.411 341.884 209.084ZM374.996 195.499H383.906V203.254C385.372 197.827 388.636 195.114 393.696 195.114C396.666 195.114 398.866 196.031 400.296 197.864C401.726 199.661 402.441 202.154 402.441 205.344V218.984L406.676 220.194V222.229H393.641V220.194L397.326 219.094V206.004C397.326 203.034 396.922 200.907 396.116 199.624C395.346 198.341 394.117 197.699 392.431 197.699C389.827 197.699 387.811 198.946 386.381 201.439C384.987 203.896 384.291 207.599 384.291 212.549V219.094L388.141 220.194V222.229H374.996V220.194L379.066 219.039V198.249L374.996 197.479V195.499ZM429.596 180.979H446.316V183.014L440.871 184.279V219.809H454.951L457.096 211.834H459.956V222.229H429.596V220.194L435.096 218.929V184.334L429.596 183.014V180.979ZM474.209 195.554H482.239V197.864H474.209V214.914C474.209 217.077 474.465 218.581 474.979 219.424C475.492 220.231 476.317 220.634 477.454 220.634C478.59 220.634 480.13 220.359 482.074 219.809V221.844C479.507 222.541 477.417 222.889 475.804 222.889C471.33 222.889 469.094 220.194 469.094 214.804V197.864H464.364V195.554H469.094V189.889L474.209 186.974V195.554ZM502.669 180.979H511.909V219.039L516.584 220.194V222.229H507.014V215.959C505.694 220.506 502.559 222.779 497.609 222.779C494.163 222.779 491.376 221.587 489.249 219.204C487.159 216.821 486.114 213.447 486.114 209.084C486.114 204.684 487.159 201.256 489.249 198.799C491.376 196.342 494.144 195.114 497.554 195.114C500.011 195.114 502.046 195.701 503.659 196.874C505.309 198.047 506.354 199.587 506.794 201.494V183.784L502.669 182.959V180.979ZM498.489 197.589C493.943 197.589 491.669 201.384 491.669 208.974C491.669 216.527 493.961 220.304 498.544 220.304C501.001 220.304 503.018 219.277 504.594 217.224C506.208 215.171 507.014 212.421 507.014 208.974C507.014 205.527 506.208 202.777 504.594 200.724C503.018 198.634 500.983 197.589 498.489 197.589Z" fill="#042640"/>
<path d="M185.898 238V237.482L187.256 237.16V228.102H184.694L184.148 230.146H183.42V227.5H192.604V230.146H191.876L191.33 228.102H188.726V237.174L190.154 237.482V238H185.898ZM192.365 231.21H194.689V235.396C194.689 236.133 194.783 236.656 194.969 236.964C195.165 237.272 195.483 237.426 195.921 237.426C196.575 237.426 197.088 237.118 197.461 236.502C197.835 235.886 198.021 234.943 198.021 233.674V231.91L196.999 231.728V231.21H199.323V237.16L200.429 237.482V238H198.105V236.11C197.863 236.773 197.522 237.281 197.083 237.636C196.654 237.981 196.183 238.154 195.669 238.154C194.139 238.154 193.373 237.314 193.373 235.634V231.91L192.365 231.728V231.21ZM201.504 231.21H203.828V233.198C204.015 232.638 204.304 232.171 204.696 231.798C205.088 231.415 205.564 231.224 206.124 231.224C206.469 231.224 206.885 231.35 207.37 231.602V233.282H206.824L206.39 232.134C206.213 232.041 206.012 231.994 205.788 231.994C205.377 231.994 204.962 232.237 204.542 232.722C204.131 233.198 203.926 233.711 203.926 234.262V237.188L204.962 237.482V238H201.532V237.482L202.596 237.188V231.91L201.504 231.714V231.21ZM208.37 231.196H210.638V233.17C211.011 231.789 211.842 231.098 213.13 231.098C213.886 231.098 214.446 231.331 214.81 231.798C215.174 232.255 215.356 232.89 215.356 233.702V237.174L216.434 237.482V238H213.116V237.482L214.054 237.202V233.87C214.054 233.114 213.951 232.573 213.746 232.246C213.55 231.919 213.237 231.756 212.808 231.756C212.145 231.756 211.632 232.073 211.268 232.708C210.913 233.333 210.736 234.276 210.736 235.536V237.202L211.716 237.482V238H208.37V237.482L209.406 237.188V231.896L208.37 231.7V231.196ZM217.77 231.21H220.038V237.202L221.018 237.482V238H217.7V237.482L218.722 237.174V231.882L217.77 231.714V231.21ZM218.232 228.228C218.232 227.976 218.312 227.78 218.47 227.64C218.638 227.491 218.858 227.416 219.128 227.416C219.408 227.416 219.632 227.491 219.8 227.64C219.968 227.78 220.052 227.976 220.052 228.228C220.052 228.471 219.973 228.667 219.814 228.816C219.656 228.965 219.432 229.04 219.142 229.04C218.862 229.04 218.638 228.97 218.47 228.83C218.312 228.681 218.232 228.48 218.232 228.228ZM222.52 231.196H224.788V233.17C225.161 231.789 225.992 231.098 227.28 231.098C228.036 231.098 228.596 231.331 228.96 231.798C229.324 232.255 229.506 232.89 229.506 233.702V237.174L230.584 237.482V238H227.266V237.482L228.204 237.202V233.87C228.204 233.114 228.101 232.573 227.896 232.246C227.7 231.919 227.387 231.756 226.958 231.756C226.295 231.756 225.782 232.073 225.418 232.708C225.063 233.333 224.886 234.276 224.886 235.536V237.202L225.866 237.482V238H222.52V237.482L223.556 237.188V231.896L222.52 231.7V231.196ZM233.153 238.798C232.705 239.246 232.481 239.736 232.481 240.268C232.481 240.8 232.691 241.239 233.111 241.584C233.54 241.939 234.142 242.116 234.917 242.116C235.701 242.116 236.345 241.943 236.849 241.598C237.362 241.262 237.619 240.819 237.619 240.268C237.619 239.615 237.171 239.251 236.275 239.176L234.287 239.022C233.792 238.985 233.414 238.91 233.153 238.798ZM234.889 231.616C233.862 231.616 233.349 232.311 233.349 233.702C233.349 234.421 233.475 234.948 233.727 235.284C233.979 235.62 234.371 235.788 234.903 235.788C235.957 235.788 236.485 235.107 236.485 233.744C236.485 232.988 236.359 232.447 236.107 232.12C235.855 231.784 235.449 231.616 234.889 231.616ZM238.627 231.238V231.728L237.367 232.218C237.647 232.629 237.787 233.128 237.787 233.716C237.787 234.509 237.511 235.139 236.961 235.606C236.41 236.073 235.71 236.306 234.861 236.306C234.59 236.306 234.277 236.269 233.923 236.194C233.465 236.446 233.237 236.717 233.237 237.006C233.237 237.286 233.316 237.482 233.475 237.594C233.643 237.706 234.021 237.79 234.609 237.846L235.995 237.958C236.853 237.977 237.469 238.145 237.843 238.462C238.216 238.779 238.403 239.255 238.403 239.89C238.403 240.749 238.067 241.416 237.395 241.892C236.723 242.368 235.869 242.606 234.833 242.606C233.797 242.606 232.994 242.415 232.425 242.032C231.855 241.649 231.571 241.103 231.571 240.394C231.571 239.694 231.995 239.115 232.845 238.658C232.471 238.341 232.285 237.986 232.285 237.594C232.285 237.202 232.373 236.903 232.551 236.698C232.728 236.493 233.05 236.283 233.517 236.068C232.546 235.573 232.061 234.785 232.061 233.702C232.061 232.899 232.317 232.26 232.831 231.784C233.344 231.299 234.035 231.056 234.903 231.056C235.323 231.056 235.771 231.117 236.247 231.238H238.627ZM251.372 227.5H254.816V228.018L253.444 228.368V238H252.464L245.912 228.396V237.174L247.284 237.482V238H243.91V237.482L245.212 237.174V228.382L243.91 228.018V227.5H247.032L252.744 235.788V228.382L251.372 228.018V227.5ZM263.582 238H261.118V236.586C260.679 237.613 259.909 238.126 258.808 238.126C258.071 238.126 257.511 237.967 257.128 237.65C256.745 237.323 256.554 236.871 256.554 236.292C256.554 235.471 256.913 234.883 257.632 234.528C258.36 234.164 259.513 233.968 261.09 233.94V233.338C261.09 232.675 260.955 232.227 260.684 231.994C260.413 231.751 260.012 231.63 259.48 231.63C258.948 231.63 258.486 231.751 258.094 231.994L257.632 233.38H257.114V231.798C257.347 231.602 257.669 231.439 258.08 231.308C258.491 231.168 258.939 231.098 259.424 231.098C260.413 231.098 261.155 231.289 261.65 231.672C262.154 232.045 262.406 232.713 262.406 233.674V237.16L263.582 237.482V238ZM259.172 237.538C259.769 237.538 260.236 237.309 260.572 236.852C260.917 236.385 261.09 235.578 261.09 234.43C259.485 234.43 258.505 234.677 258.15 235.172C257.982 235.405 257.898 235.751 257.898 236.208C257.898 236.665 257.996 237.001 258.192 237.216C258.397 237.431 258.724 237.538 259.172 237.538ZM266.929 231.21H268.973V231.798H266.929V236.138C266.929 236.689 266.994 237.071 267.125 237.286C267.255 237.491 267.465 237.594 267.755 237.594C268.044 237.594 268.436 237.524 268.931 237.384V237.902C268.277 238.079 267.745 238.168 267.335 238.168C266.196 238.168 265.627 237.482 265.627 236.11V231.798H264.423V231.21H265.627V229.768L266.929 229.026V231.21ZM269.707 231.21H272.031V235.396C272.031 236.133 272.124 236.656 272.311 236.964C272.507 237.272 272.824 237.426 273.263 237.426C273.916 237.426 274.43 237.118 274.803 236.502C275.176 235.886 275.363 234.943 275.363 233.674V231.91L274.341 231.728V231.21H276.665V237.16L277.771 237.482V238H275.447V236.11C275.204 236.773 274.864 237.281 274.425 237.636C273.996 237.981 273.524 238.154 273.011 238.154C271.48 238.154 270.715 237.314 270.715 235.634V231.91L269.707 231.728V231.21ZM278.846 231.21H281.17V233.198C281.357 232.638 281.646 232.171 282.038 231.798C282.43 231.415 282.906 231.224 283.466 231.224C283.811 231.224 284.227 231.35 284.712 231.602V233.282H284.166L283.732 232.134C283.555 232.041 283.354 231.994 283.13 231.994C282.719 231.994 282.304 232.237 281.884 232.722C281.473 233.198 281.268 233.711 281.268 234.262V237.188L282.304 237.482V238H278.874V237.482L279.938 237.188V231.91L278.846 231.714V231.21ZM291.604 235.634V237.23C291.072 237.837 290.213 238.14 289.028 238.14C287.852 238.14 286.979 237.832 286.41 237.216C285.84 236.591 285.556 235.727 285.556 234.626C285.556 233.525 285.854 232.661 286.452 232.036C287.058 231.401 287.87 231.084 288.888 231.084C289.494 231.084 289.998 231.196 290.4 231.42C290.81 231.644 291.104 231.943 291.282 232.316C291.562 232.932 291.702 233.581 291.702 234.262H286.956C286.956 235.317 287.077 236.119 287.32 236.67C287.6 237.295 288.15 237.608 288.972 237.608C289.261 237.608 289.536 237.571 289.798 237.496C290.068 237.412 290.264 237.333 290.386 237.258C290.507 237.183 290.568 237.137 290.568 237.118L291.086 235.634H291.604ZM288.86 231.63C288.066 231.63 287.525 231.994 287.236 232.722C287.096 233.049 287.012 233.408 286.984 233.8H290.484C290.484 232.353 289.942 231.63 288.86 231.63ZM293.213 230.398V226.87H294.991L293.871 230.398H293.213ZM302.045 235.998C302.045 236.623 301.811 237.127 301.345 237.51C300.878 237.883 300.159 238.07 299.189 238.07C298.227 238.07 297.476 237.813 296.935 237.3V235.676H297.481L297.887 237.048C298.213 237.375 298.736 237.538 299.455 237.538C299.959 237.538 300.341 237.426 300.603 237.202C300.864 236.978 300.995 236.707 300.995 236.39C300.995 236.073 300.859 235.825 300.589 235.648C300.318 235.471 299.781 235.256 298.979 235.004C298.185 234.743 297.63 234.472 297.313 234.192C296.995 233.912 296.837 233.497 296.837 232.946C296.837 232.386 297.065 231.924 297.523 231.56C297.98 231.196 298.652 231.014 299.539 231.014C300.425 231.014 301.139 231.224 301.681 231.644V233.254H301.135L300.701 231.91C300.393 231.667 299.982 231.546 299.469 231.546C298.451 231.546 297.943 231.91 297.943 232.638C297.943 232.909 298.087 233.147 298.377 233.352C298.675 233.548 299.217 233.767 300.001 234.01C300.785 234.253 301.321 234.528 301.611 234.836C301.9 235.135 302.045 235.522 302.045 235.998ZM313.468 233.464H317.794V233.982L316.408 234.304V237.496C315.932 237.711 315.321 237.879 314.574 238C313.828 238.121 313.142 238.182 312.516 238.182C310.883 238.182 309.623 237.701 308.736 236.74C307.85 235.779 307.406 234.463 307.406 232.792C307.406 231.121 307.84 229.787 308.708 228.788C309.576 227.78 310.804 227.276 312.39 227.276C313.034 227.276 313.702 227.365 314.392 227.542C315.083 227.71 315.652 228.004 316.1 228.424V230.79H315.372L314.686 228.466C314.276 228.027 313.501 227.808 312.362 227.808C311.224 227.808 310.384 228.233 309.842 229.082C309.301 229.931 309.03 231.131 309.03 232.68C309.03 235.975 310.183 237.622 312.488 237.622C313.216 237.622 314.033 237.51 314.938 237.286V234.304L313.468 233.982V233.464ZM318.491 231.21H320.759V237.202L321.739 237.482V238H318.421V237.482L319.443 237.174V231.882L318.491 231.714V231.21ZM318.953 228.228C318.953 227.976 319.032 227.78 319.191 227.64C319.359 227.491 319.578 227.416 319.849 227.416C320.129 227.416 320.353 227.491 320.521 227.64C320.689 227.78 320.773 227.976 320.773 228.228C320.773 228.471 320.694 228.667 320.535 228.816C320.376 228.965 320.152 229.04 319.863 229.04C319.583 229.04 319.359 228.97 319.191 228.83C319.032 228.681 318.953 228.48 318.953 228.228ZM327.553 229.6H326.965L326.643 228.396C326.456 228.293 326.283 228.242 326.125 228.242C325.807 228.242 325.565 228.401 325.397 228.718C325.229 229.035 325.145 229.446 325.145 229.95C325.145 230.454 325.243 230.869 325.439 231.196H327.119V231.77H325.467V237.174L326.531 237.482V238H323.171V237.482L324.137 237.174V231.77H322.863V231.196H324.137C324.137 229.908 324.286 228.984 324.585 228.424C324.883 227.855 325.397 227.57 326.125 227.57C326.498 227.57 326.974 227.649 327.553 227.808V229.6ZM330.995 231.21H333.039V231.798H330.995V236.138C330.995 236.689 331.06 237.071 331.191 237.286C331.322 237.491 331.532 237.594 331.821 237.594C332.11 237.594 332.502 237.524 332.997 237.384V237.902C332.344 238.079 331.812 238.168 331.401 238.168C330.262 238.168 329.693 237.482 329.693 236.11V231.798H328.489V231.21H329.693V229.768L330.995 229.026V231.21ZM339.178 235.998C339.178 236.623 338.944 237.127 338.478 237.51C338.011 237.883 337.292 238.07 336.322 238.07C335.36 238.07 334.609 237.813 334.068 237.3V235.676H334.614L335.02 237.048C335.346 237.375 335.869 237.538 336.588 237.538C337.092 237.538 337.474 237.426 337.736 237.202C337.997 236.978 338.128 236.707 338.128 236.39C338.128 236.073 337.992 235.825 337.722 235.648C337.451 235.471 336.914 235.256 336.112 235.004C335.318 234.743 334.763 234.472 334.446 234.192C334.128 233.912 333.97 233.497 333.97 232.946C333.97 232.386 334.198 231.924 334.656 231.56C335.113 231.196 335.785 231.014 336.672 231.014C337.558 231.014 338.272 231.224 338.814 231.644V233.254H338.268L337.834 231.91C337.526 231.667 337.115 231.546 336.602 231.546C335.584 231.546 335.076 231.91 335.076 232.638C335.076 232.909 335.22 233.147 335.51 233.352C335.808 233.548 336.35 233.767 337.134 234.01C337.918 234.253 338.454 234.528 338.744 234.836C339.033 235.135 339.178 235.522 339.178 235.998ZM344.399 231.21H346.667V237.202L347.647 237.482V238H344.329V237.482L345.351 237.174V231.882L344.399 231.714V231.21ZM344.861 228.228C344.861 227.976 344.941 227.78 345.099 227.64C345.267 227.491 345.487 227.416 345.757 227.416C346.037 227.416 346.261 227.491 346.429 227.64C346.597 227.78 346.681 227.976 346.681 228.228C346.681 228.471 346.602 228.667 346.443 228.816C346.285 228.965 346.061 229.04 345.771 229.04C345.491 229.04 345.267 228.97 345.099 228.83C344.941 228.681 344.861 228.48 344.861 228.228ZM349.149 231.196H351.417V233.17C351.79 231.789 352.621 231.098 353.909 231.098C354.665 231.098 355.225 231.331 355.589 231.798C355.953 232.255 356.135 232.89 356.135 233.702V237.174L357.213 237.482V238H353.895V237.482L354.833 237.202V233.87C354.833 233.114 354.73 232.573 354.525 232.246C354.329 231.919 354.016 231.756 353.587 231.756C352.924 231.756 352.411 232.073 352.047 232.708C351.692 233.333 351.515 234.276 351.515 235.536V237.202L352.495 237.482V238H349.149V237.482L350.185 237.188V231.896L349.149 231.7V231.196ZM360.636 231.21H362.68V231.798H360.636V236.138C360.636 236.689 360.701 237.071 360.832 237.286C360.962 237.491 361.172 237.594 361.462 237.594C361.751 237.594 362.143 237.524 362.638 237.384V237.902C361.984 238.079 361.452 238.168 361.042 238.168C359.903 238.168 359.334 237.482 359.334 236.11V231.798H358.13V231.21H359.334V229.768L360.636 229.026V231.21ZM368.656 234.654C368.656 233.646 368.502 232.899 368.194 232.414C367.886 231.919 367.382 231.672 366.682 231.672C365.991 231.672 365.478 231.91 365.142 232.386C364.815 232.853 364.652 233.604 364.652 234.64C364.652 235.676 364.815 236.423 365.142 236.88C365.469 237.328 365.968 237.552 366.64 237.552C367.321 237.552 367.825 237.323 368.152 236.866C368.488 236.399 368.656 235.662 368.656 234.654ZM363.238 234.654C363.238 233.553 363.551 232.685 364.176 232.05C364.801 231.406 365.627 231.084 366.654 231.084C367.69 231.084 368.516 231.397 369.132 232.022C369.748 232.647 370.056 233.52 370.056 234.64C370.056 235.76 369.748 236.623 369.132 237.23C368.516 237.827 367.685 238.126 366.64 238.126C365.604 238.126 364.778 237.823 364.162 237.216C363.546 236.609 363.238 235.755 363.238 234.654ZM378.964 238.126C377.881 238.126 376.799 237.79 375.716 237.118V234.808H376.528L377.13 237.076C377.662 237.412 378.259 237.58 378.922 237.58C379.417 237.58 379.921 237.468 380.434 237.244C380.705 237.123 380.929 236.945 381.106 236.712C381.283 236.479 381.381 236.203 381.4 235.886C381.372 235.139 380.985 234.519 380.238 234.024C379.958 233.847 379.58 233.651 379.104 233.436C378.628 233.212 378.32 233.067 378.18 233.002C376.491 232.311 375.646 231.369 375.646 230.174C375.646 229.427 375.935 228.774 376.514 228.214C377.093 227.654 377.919 227.374 378.992 227.374C379.543 227.374 380.112 227.463 380.7 227.64C381.288 227.808 381.778 228.079 382.17 228.452V230.496H381.456L380.812 228.368C380.289 228.088 379.729 227.948 379.132 227.948C378.535 227.948 378.035 228.093 377.634 228.382C377.233 228.662 377.032 229.054 377.032 229.558C377.032 230.146 377.279 230.617 377.774 230.972C378.194 231.28 378.637 231.541 379.104 231.756C379.571 231.961 379.86 232.092 379.972 232.148C381.867 232.951 382.814 233.987 382.814 235.256C382.814 235.891 382.599 236.432 382.17 236.88C381.386 237.711 380.317 238.126 378.964 238.126ZM383.703 231.21H386.027V235.396C386.027 236.133 386.121 236.656 386.307 236.964C386.503 237.272 386.821 237.426 387.259 237.426C387.913 237.426 388.426 237.118 388.799 236.502C389.173 235.886 389.359 234.943 389.359 233.674V231.91L388.337 231.728V231.21H390.661V237.16L391.767 237.482V238H389.443V236.11C389.201 236.773 388.86 237.281 388.421 237.636C387.992 237.981 387.521 238.154 387.007 238.154C385.477 238.154 384.711 237.314 384.711 235.634V231.91L383.703 231.728V231.21ZM397.994 235.998C397.994 236.623 397.761 237.127 397.294 237.51C396.827 237.883 396.109 238.07 395.138 238.07C394.177 238.07 393.425 237.813 392.884 237.3V235.676H393.43L393.836 237.048C394.163 237.375 394.685 237.538 395.404 237.538C395.908 237.538 396.291 237.426 396.552 237.202C396.813 236.978 396.944 236.707 396.944 236.39C396.944 236.073 396.809 235.825 396.538 235.648C396.267 235.471 395.731 235.256 394.928 235.004C394.135 234.743 393.579 234.472 393.262 234.192C392.945 233.912 392.786 233.497 392.786 232.946C392.786 232.386 393.015 231.924 393.472 231.56C393.929 231.196 394.601 231.014 395.488 231.014C396.375 231.014 397.089 231.224 397.63 231.644V233.254H397.084L396.65 231.91C396.342 231.667 395.931 231.546 395.418 231.546C394.401 231.546 393.892 231.91 393.892 232.638C393.892 232.909 394.037 233.147 394.326 233.352C394.625 233.548 395.166 233.767 395.95 234.01C396.734 234.253 397.271 234.528 397.56 234.836C397.849 235.135 397.994 235.522 397.994 235.998ZM401.364 231.21H403.408V231.798H401.364V236.138C401.364 236.689 401.429 237.071 401.56 237.286C401.691 237.491 401.901 237.594 402.19 237.594C402.479 237.594 402.871 237.524 403.366 237.384V237.902C402.713 238.079 402.181 238.168 401.77 238.168C400.631 238.168 400.062 237.482 400.062 236.11V231.798H398.858V231.21H400.062V229.768L401.364 229.026V231.21ZM411.252 238H408.788V236.586C408.349 237.613 407.579 238.126 406.478 238.126C405.741 238.126 405.181 237.967 404.798 237.65C404.415 237.323 404.224 236.871 404.224 236.292C404.224 235.471 404.583 234.883 405.302 234.528C406.03 234.164 407.183 233.968 408.76 233.94V233.338C408.76 232.675 408.625 232.227 408.354 231.994C408.083 231.751 407.682 231.63 407.15 231.63C406.618 231.63 406.156 231.751 405.764 231.994L405.302 233.38H404.784V231.798C405.017 231.602 405.339 231.439 405.75 231.308C406.161 231.168 406.609 231.098 407.094 231.098C408.083 231.098 408.825 231.289 409.32 231.672C409.824 232.045 410.076 232.713 410.076 233.674V237.16L411.252 237.482V238ZM406.842 237.538C407.439 237.538 407.906 237.309 408.242 236.852C408.587 236.385 408.76 235.578 408.76 234.43C407.155 234.43 406.175 234.677 405.82 235.172C405.652 235.405 405.568 235.751 405.568 236.208C405.568 236.665 405.666 237.001 405.862 237.216C406.067 237.431 406.394 237.538 406.842 237.538ZM412.513 231.21H414.781V237.202L415.761 237.482V238H412.443V237.482L413.465 237.174V231.882L412.513 231.714V231.21ZM412.975 228.228C412.975 227.976 413.054 227.78 413.213 227.64C413.381 227.491 413.6 227.416 413.87 227.416C414.151 227.416 414.375 227.491 414.543 227.64C414.711 227.78 414.795 227.976 414.795 228.228C414.795 228.471 414.715 228.667 414.557 228.816C414.398 228.965 414.174 229.04 413.885 229.04C413.605 229.04 413.381 228.97 413.213 228.83C413.054 228.681 412.975 228.48 412.975 228.228ZM417.262 231.196H419.53V233.17C419.904 231.789 420.734 231.098 422.022 231.098C422.778 231.098 423.338 231.331 423.702 231.798C424.066 232.255 424.248 232.89 424.248 233.702V237.174L425.326 237.482V238H422.008V237.482L422.946 237.202V233.87C422.946 233.114 422.844 232.573 422.638 232.246C422.442 231.919 422.13 231.756 421.7 231.756C421.038 231.756 420.524 232.073 420.16 232.708C419.806 233.333 419.628 234.276 419.628 235.536V237.202L420.608 237.482V238H417.262V237.482L418.298 237.188V231.896L417.262 231.7V231.196ZM433.551 238H431.087V236.586C430.648 237.613 429.878 238.126 428.777 238.126C428.04 238.126 427.48 237.967 427.097 237.65C426.714 237.323 426.523 236.871 426.523 236.292C426.523 235.471 426.882 234.883 427.601 234.528C428.329 234.164 429.482 233.968 431.059 233.94V233.338C431.059 232.675 430.924 232.227 430.653 231.994C430.382 231.751 429.981 231.63 429.449 231.63C428.917 231.63 428.455 231.751 428.063 231.994L427.601 233.38H427.083V231.798C427.316 231.602 427.638 231.439 428.049 231.308C428.46 231.168 428.908 231.098 429.393 231.098C430.382 231.098 431.124 231.289 431.619 231.672C432.123 232.045 432.375 232.713 432.375 233.674V237.16L433.551 237.482V238ZM429.141 237.538C429.738 237.538 430.205 237.309 430.541 236.852C430.886 236.385 431.059 235.578 431.059 234.43C429.454 234.43 428.474 234.677 428.119 235.172C427.951 235.405 427.867 235.751 427.867 236.208C427.867 236.665 427.965 237.001 428.161 237.216C428.366 237.431 428.693 237.538 429.141 237.538ZM434.671 227.5H437.163V232.792C437.359 232.223 437.663 231.793 438.073 231.504C438.484 231.215 438.955 231.07 439.487 231.07C440.355 231.07 441.06 231.383 441.601 232.008C442.143 232.624 442.413 233.492 442.413 234.612C442.413 235.732 442.143 236.6 441.601 237.216C441.069 237.832 440.36 238.14 439.473 238.14C438.904 238.14 438.409 237.986 437.989 237.678C437.569 237.37 437.266 236.927 437.079 236.348V238H434.671V237.482L435.833 237.16V228.214L434.671 228.004V227.5ZM439.291 231.7C438.685 231.7 438.176 231.966 437.765 232.498C437.364 233.021 437.163 233.721 437.163 234.598C437.163 235.466 437.355 236.171 437.737 236.712C438.129 237.244 438.647 237.51 439.291 237.51C440.43 237.51 440.999 236.544 440.999 234.612C440.999 232.671 440.43 231.7 439.291 231.7ZM444.182 227.5H446.52V237.174L447.654 237.482V238H444.098V237.482L445.19 237.188V228.172L444.182 228.004V227.5ZM454.832 235.634V237.23C454.3 237.837 453.442 238.14 452.256 238.14C451.08 238.14 450.208 237.832 449.638 237.216C449.069 236.591 448.784 235.727 448.784 234.626C448.784 233.525 449.083 232.661 449.68 232.036C450.287 231.401 451.099 231.084 452.116 231.084C452.723 231.084 453.227 231.196 453.628 231.42C454.039 231.644 454.333 231.943 454.51 232.316C454.79 232.932 454.93 233.581 454.93 234.262H450.184C450.184 235.317 450.306 236.119 450.548 236.67C450.828 237.295 451.379 237.608 452.2 237.608C452.49 237.608 452.765 237.571 453.026 237.496C453.297 237.412 453.493 237.333 453.614 237.258C453.736 237.183 453.796 237.137 453.796 237.118L454.314 235.634H454.832ZM452.088 231.63C451.295 231.63 450.754 231.994 450.464 232.722C450.324 233.049 450.24 233.408 450.212 233.8H453.712C453.712 232.353 453.171 231.63 452.088 231.63ZM464.017 238.126C462.934 238.126 461.851 237.79 460.769 237.118V234.808H461.581L462.183 237.076C462.715 237.412 463.312 237.58 463.975 237.58C464.469 237.58 464.973 237.468 465.487 237.244C465.757 237.123 465.981 236.945 466.159 236.712C466.336 236.479 466.434 236.203 466.453 235.886C466.425 235.139 466.037 234.519 465.291 234.024C465.011 233.847 464.633 233.651 464.157 233.436C463.681 233.212 463.373 233.067 463.233 233.002C461.543 232.311 460.699 231.369 460.699 230.174C460.699 229.427 460.988 228.774 461.567 228.214C462.145 227.654 462.971 227.374 464.045 227.374C464.595 227.374 465.165 227.463 465.753 227.64C466.341 227.808 466.831 228.079 467.223 228.452V230.496H466.509L465.865 228.368C465.342 228.088 464.782 227.948 464.185 227.948C463.587 227.948 463.088 228.093 462.687 228.382C462.285 228.662 462.085 229.054 462.085 229.558C462.085 230.146 462.332 230.617 462.827 230.972C463.247 231.28 463.69 231.541 464.157 231.756C464.623 231.961 464.913 232.092 465.025 232.148C466.919 232.951 467.867 233.987 467.867 235.256C467.867 235.891 467.652 236.432 467.223 236.88C466.439 237.711 465.37 238.126 464.017 238.126ZM474.244 234.654C474.244 233.646 474.09 232.899 473.782 232.414C473.474 231.919 472.97 231.672 472.27 231.672C471.579 231.672 471.066 231.91 470.73 232.386C470.403 232.853 470.24 233.604 470.24 234.64C470.24 235.676 470.403 236.423 470.73 236.88C471.057 237.328 471.556 237.552 472.228 237.552C472.909 237.552 473.413 237.323 473.74 236.866C474.076 236.399 474.244 235.662 474.244 234.654ZM468.826 234.654C468.826 233.553 469.139 232.685 469.764 232.05C470.389 231.406 471.215 231.084 472.242 231.084C473.278 231.084 474.104 231.397 474.72 232.022C475.336 232.647 475.644 233.52 475.644 234.64C475.644 235.76 475.336 236.623 474.72 237.23C474.104 237.827 473.273 238.126 472.228 238.126C471.192 238.126 470.366 237.823 469.75 237.216C469.134 236.609 468.826 235.755 468.826 234.654ZM477.24 227.5H479.578V237.174L480.712 237.482V238H477.156V237.482L478.248 237.188V228.172L477.24 228.004V227.5ZM481.717 231.21H484.041V235.396C484.041 236.133 484.134 236.656 484.321 236.964C484.517 237.272 484.834 237.426 485.273 237.426C485.926 237.426 486.44 237.118 486.813 236.502C487.186 235.886 487.373 234.943 487.373 233.674V231.91L486.351 231.728V231.21H488.675V237.16L489.781 237.482V238H487.457V236.11C487.214 236.773 486.874 237.281 486.435 237.636C486.006 237.981 485.534 238.154 485.021 238.154C483.49 238.154 482.725 237.314 482.725 235.634V231.91L481.717 231.728V231.21ZM492.802 231.21H494.846V231.798H492.802V236.138C492.802 236.689 492.867 237.071 492.998 237.286C493.128 237.491 493.338 237.594 493.628 237.594C493.917 237.594 494.309 237.524 494.804 237.384V237.902C494.15 238.079 493.618 238.168 493.208 238.168C492.069 238.168 491.5 237.482 491.5 236.11V231.798H490.296V231.21H491.5V229.768L492.802 229.026V231.21ZM495.692 231.21H497.96V237.202L498.94 237.482V238H495.622V237.482L496.644 237.174V231.882L495.692 231.714V231.21ZM496.154 228.228C496.154 227.976 496.234 227.78 496.392 227.64C496.56 227.491 496.78 227.416 497.05 227.416C497.33 227.416 497.554 227.491 497.722 227.64C497.89 227.78 497.974 227.976 497.974 228.228C497.974 228.471 497.895 228.667 497.736 228.816C497.578 228.965 497.354 229.04 497.064 229.04C496.784 229.04 496.56 228.97 496.392 228.83C496.234 228.681 496.154 228.48 496.154 228.228ZM505.58 234.654C505.58 233.646 505.426 232.899 505.118 232.414C504.81 231.919 504.306 231.672 503.606 231.672C502.915 231.672 502.402 231.91 502.066 232.386C501.739 232.853 501.576 233.604 501.576 234.64C501.576 235.676 501.739 236.423 502.066 236.88C502.393 237.328 502.892 237.552 503.564 237.552C504.245 237.552 504.749 237.323 505.076 236.866C505.412 236.399 505.58 235.662 505.58 234.654ZM500.162 234.654C500.162 233.553 500.475 232.685 501.1 232.05C501.725 231.406 502.551 231.084 503.578 231.084C504.614 231.084 505.44 231.397 506.056 232.022C506.672 232.647 506.98 233.52 506.98 234.64C506.98 235.76 506.672 236.623 506.056 237.23C505.44 237.827 504.609 238.126 503.564 238.126C502.528 238.126 501.702 237.823 501.086 237.216C500.47 236.609 500.162 235.755 500.162 234.654ZM508.59 231.196H510.858V233.17C511.232 231.789 512.062 231.098 513.35 231.098C514.106 231.098 514.666 231.331 515.03 231.798C515.394 232.255 515.576 232.89 515.576 233.702V237.174L516.654 237.482V238H513.336V237.482L514.274 237.202V233.87C514.274 233.114 514.172 232.573 513.966 232.246C513.77 231.919 513.458 231.756 513.028 231.756C512.366 231.756 511.852 232.073 511.488 232.708C511.134 233.333 510.956 234.276 510.956 235.536V237.202L511.936 237.482V238H508.59V237.482L509.626 237.188V231.896L508.59 231.7V231.196ZM523.283 235.998C523.283 236.623 523.05 237.127 522.583 237.51C522.116 237.883 521.398 238.07 520.427 238.07C519.466 238.07 518.714 237.813 518.173 237.3V235.676H518.719L519.125 237.048C519.452 237.375 519.974 237.538 520.693 237.538C521.197 237.538 521.58 237.426 521.841 237.202C522.102 236.978 522.233 236.707 522.233 236.39C522.233 236.073 522.098 235.825 521.827 235.648C521.556 235.471 521.02 235.256 520.217 235.004C519.424 234.743 518.868 234.472 518.551 234.192C518.234 233.912 518.075 233.497 518.075 232.946C518.075 232.386 518.304 231.924 518.761 231.56C519.218 231.196 519.89 231.014 520.777 231.014C521.664 231.014 522.378 231.224 522.919 231.644V233.254H522.373L521.939 231.91C521.631 231.667 521.22 231.546 520.707 231.546C519.69 231.546 519.181 231.91 519.181 232.638C519.181 232.909 519.326 233.147 519.615 233.352C519.914 233.548 520.455 233.767 521.239 234.01C522.023 234.253 522.56 234.528 522.849 234.836C523.138 235.135 523.283 235.522 523.283 235.998Z" fill="#042640"/>
<rect width="119" height="97" transform="matrix(-1 0 0 1 176 125)" fill="white"/>
<path d="M66.0925 133.618C66.3602 132.781 67.1746 132.145 68.1935 131.963L68.2121 131.96C68.3832 131.929 68.5803 131.911 68.7811 131.911C69.6662 131.911 70.4583 132.242 70.9752 132.763L70.9789 132.766C77.2933 138.844 85.5676 143.421 95.0095 145.861L95.3776 145.943C101.673 147.616 108.996 148.81 116.563 149.286L116.891 149.302C125.187 149.553 132.974 151.06 140.081 153.597L139.672 153.466C151.944 158.886 160.132 169.305 160.132 181.281C160.132 181.469 160.128 181.657 160.125 181.845V181.818C160.091 182.736 160.013 183.643 159.887 184.546C159.314 188.177 158.087 191.472 156.294 194.504L156.399 194.31C162.122 200.317 167.064 207.177 170.85 214.528L171.121 215.125C171.262 215.389 171.344 215.695 171.344 216.019C171.344 217.274 170.095 218.293 168.555 218.293C167.41 218.293 166.428 217.732 165.997 216.929L165.989 216.914C162.404 209.92 158.21 203.897 153.253 198.353L153.472 198.611C149.244 203.931 143.398 208.129 136.488 210.8L136.239 210.887C130.955 212.855 124.774 214.004 118.267 214.004C118.166 214.004 118.069 214.004 117.973 214.004H117.988C110.963 213.976 104.28 212.815 98.189 210.727L98.5311 210.83C78.963 203.6 65.0549 188.684 62.541 170.939L62.515 170.705C61.9684 167.28 61.656 163.321 61.656 159.302C61.656 150.153 63.2774 141.311 66.2933 132.96L66.0925 133.618ZM68.0411 170.029C70.2872 186.389 82.8826 199.987 100.298 206.495L100.647 206.61C105.608 208.408 111.398 209.457 117.486 209.457C123.432 209.457 129.092 208.459 134.224 206.656L133.948 206.741C140.679 204.155 146.109 200.078 149.723 195.028L149.813 194.892C137.478 183.336 121.439 177.58 98.4902 175.758C97.0771 175.637 95.9838 174.673 95.9838 173.497C95.9838 172.242 97.2333 171.224 98.7728 171.224C98.8621 171.224 98.9513 171.227 99.0406 171.233H99.0294C119.999 171.866 138.749 179.108 152.367 190.46L152.382 190.472C153.29 188.602 153.985 186.422 154.338 184.158L154.357 184.021C154.469 183.245 154.535 182.469 154.562 181.693C154.565 181.545 154.569 181.366 154.569 181.19C154.569 171.011 147.619 162.157 137.377 157.607L137.206 157.537C131.07 155.391 123.949 154.045 116.474 153.824L116.37 153.821C108.014 153.297 100.268 152.027 92.8935 150.087L93.6075 150.25C84.504 147.825 76.6983 143.939 70.2575 138.901L70.2798 138.916C68.3349 145.04 67.2192 152.066 67.2192 159.308C67.2192 163.088 67.5242 166.81 68.1117 170.457L68.056 170.026L68.0411 170.029Z" fill="#042640"/>
<path d="M145.5 147.48C145.5 155.53 138.147 162.5 128.5 162.5C118.853 162.5 111.5 155.53 111.5 147.48C111.5 145.729 112.443 143.027 114.249 139.662C116 136.402 118.363 132.874 120.767 129.588C123.165 126.313 125.568 123.327 127.374 121.158C127.783 120.667 128.16 120.219 128.5 119.819C128.84 120.219 129.217 120.667 129.626 121.158C131.432 123.327 133.835 126.313 136.233 129.588C138.637 132.874 141 136.402 142.751 139.662C144.557 143.027 145.5 145.729 145.5 147.48Z" fill="white" stroke="#042640" stroke-width="5"/>
</svg>
